<?xml version="1.0" encoding="UTF-8"?>
<!DOCTYPE svg PUBLIC "-//W3C//DTD SVG 1.1//EN" "http://www.w3.org/Graphics/SVG/1.1/DTD/svg11.dtd">
<!-- Creator: CorelDRAW X8 -->
<svg xmlns="http://www.w3.org/2000/svg" xml:space="preserve" width="19.3574mm" height="29.3442mm" version="1.1" style="shape-rendering:geometricPrecision; text-rendering:geometricPrecision; image-rendering:optimizeQuality; fill-rule:evenodd; clip-rule:evenodd"
viewBox="0 0 1359 2060"
 xmlns:xlink="http://www.w3.org/1999/xlink">
 <defs>
  <style type="text/css">
   <![CDATA[
    .fil0 {fill:#0A1136}
   ]]>
  </style>
 </defs>
 <g id="Слой_x0020_1">
  <metadata id="CorelCorpID_0Corel-Layer"/>
  <path class="fil0" d="M109 0l1143 0c14,0 28,3 41,8 13,6 25,14 35,23 10,10 18,22 23,35 5,13 8,27 8,41l0 1846c0,14 -3,28 -8,41 -5,13 -13,25 -23,35 -10,10 -22,18 -35,23 -12,5 -25,8 -38,8l0 0 -1150 0 0 0c-13,0 -26,-3 -37,-8 -13,-5 -25,-13 -35,-23 -10,-10 -18,-22 -23,-35 -6,-13 -9,-27 -9,-41l0 -1440c0,-4 1,-8 3,-12 1,-4 4,-7 7,-10 2,-3 6,-5 10,-7 3,-2 7,-2 12,-2 4,0 8,0 12,2 3,2 7,4 10,7 3,3 5,6 6,10 2,4 3,8 3,12l0 1440c0,6 1,12 3,17 3,5 6,10 10,15l1 1c4,3 9,6 14,8 4,2 9,4 15,4l1147 0c5,0 10,-2 15,-4 5,-2 10,-5 13,-8l1 -1c5,-5 8,-9 10,-15 2,-5 4,-11 4,-17l0 -1846c0,-6 -2,-11 -4,-17 -2,-5 -5,-10 -10,-14l-1 -1c-3,-4 -8,-7 -13,-9 -5,-2 -10,-3 -15,-4l-1147 0c-5,1 -11,2 -15,4 -5,2 -10,5 -14,9l-1 1c-4,4 -7,9 -10,14 -2,6 -3,11 -3,17l0 101c0,4 -1,8 -3,12 -1,4 -3,7 -6,10 -3,3 -7,5 -10,7 -4,1 -8,2 -12,2 -5,0 -9,-1 -12,-2 -4,-2 -8,-4 -10,-7 -3,-3 -6,-6 -7,-10 -2,-4 -3,-8 -3,-12l0 -101c0,-14 3,-28 9,-41 5,-13 13,-25 23,-34 10,-10 22,-18 35,-24 12,-5 26,-8 41,-8zm1101 1642c2,3 4,7 5,11l0 1c1,4 1,8 1,12 -1,4 -3,8 -5,11 -2,3 -5,6 -8,9 -3,2 -7,4 -11,5l-1 0 0 0c-1,0 -2,1 -2,1 -3,0 -5,0 -7,0 -4,0 -7,0 -10,-1 -4,-1 -7,-3 -10,-5 -2,-2 -5,-5 -7,-8 -1,-3 -3,-6 -4,-10 0,-4 -1,-8 0,-12 1,-4 2,-8 4,-11 2,-4 5,-7 9,-9 3,-3 7,-4 11,-5l3 -1c4,-1 8,-1 12,0 4,0 8,2 11,4 4,2 7,5 9,8zm-1177 -1250l-2 0c-4,0 -7,0 -10,-1 -3,-2 -6,-3 -9,-5 -3,-3 -5,-5 -7,-8 -2,-3 -3,-6 -4,-10l0 0c-1,-4 -1,-8 -1,-12 1,-4 3,-8 5,-11 2,-4 5,-7 8,-9 3,-3 7,-4 11,-5l3 -1c4,-1 8,-1 12,0 4,0 8,2 12,4 3,2 6,5 8,8 3,3 5,7 5,11l0 0c1,4 2,9 1,13 -1,4 -2,7 -4,11 -2,3 -5,6 -9,9 -3,2 -7,4 -11,5l-1 0c-2,1 -5,1 -7,1zm1162 1151c-3,2 -7,3 -12,3 -4,0 -8,-1 -12,-3 -3,-1 -7,-4 -10,-6l-2 -3 0 0c-2,-2 -3,-5 -5,-8 -1,-3 -2,-7 -2,-11l0 -193 -162 0 0 510 162 0 0 -25c0,-4 1,-8 2,-12 2,-4 4,-7 7,-10 3,-3 7,-5 10,-7 4,-1 8,-2 12,-2 4,0 9,1 12,2 4,2 8,4 10,7 3,3 6,6 7,10 2,4 3,8 3,12l0 57c0,4 -1,8 -3,12 -1,3 -4,7 -7,10l-3 3 0 -1c-2,2 -4,3 -7,4 -2,2 -5,2 -8,3l0 0 -231 0 0 0c-3,-1 -6,-1 -9,-3 -4,-1 -7,-3 -10,-6l-1 -1c-2,-3 -4,-6 -6,-9 -1,-4 -2,-8 -2,-12l0 -573c0,-4 1,-8 2,-12 2,-4 4,-7 7,-10 3,-3 6,-5 10,-7 4,-1 8,-2 12,-2l224 0c5,0 9,1 12,2 4,2 8,4 10,7 3,3 6,6 7,10 2,4 3,8 3,12l0 223c0,5 -1,9 -3,12 -1,4 -4,8 -7,11l-2 2 0 0c-3,2 -5,3 -8,4zm-236 -631l224 0c5,0 9,1 12,2 3,1 5,3 8,5l0 -1 2 3c3,3 6,6 7,10 2,4 3,8 3,12l0 224c0,4 -1,8 -3,12 -1,4 -4,7 -7,10 -2,3 -6,5 -10,7 -3,1 -7,2 -12,2l-224 0c-4,0 -8,-1 -12,-2 -4,-2 -7,-4 -10,-7 -3,-3 -5,-6 -7,-10 -1,-4 -2,-8 -2,-12l0 -224c0,-4 1,-8 2,-12 2,-3 4,-6 6,-9l0 0 1 -1c3,-3 6,-5 10,-7 4,-1 8,-2 12,-2zm31 224l162 0 0 -162 -162 0 0 162zm-421 472l224 0c9,0 17,4 22,9l1 2c3,2 5,5 6,9 2,3 2,7 2,12l0 224c0,8 -3,16 -9,22 -3,3 -6,5 -10,6 -4,2 -8,3 -12,3l-224 0c-4,0 -8,-1 -12,-3 -4,-1 -7,-3 -10,-6 -3,-3 -5,-7 -7,-10 -1,-4 -2,-8 -2,-12l0 -224c0,-5 1,-9 2,-12 2,-4 4,-8 7,-11l2 -2 1 0c2,-2 4,-3 7,-4 4,-2 8,-3 12,-3zm31 224l162 0 0 -161 -162 0 0 161zm222 -553c2,4 2,8 2,12l0 224c0,5 0,9 -2,12 -2,4 -4,8 -7,10l-1 1 0 0c-2,3 -6,5 -9,6 -3,1 -5,2 -8,2l0 1c-77,-1 -154,0 -231,0l0 -1c-3,0 -6,-1 -9,-2 -4,-1 -7,-4 -10,-7 -3,-2 -5,-6 -7,-10 -1,-3 -2,-7 -2,-12l0 -224c0,-4 1,-8 2,-12 1,-3 3,-5 5,-8l0 0 2 -2c3,-3 6,-5 10,-7 4,-1 8,-2 12,-2l224 0c4,0 8,1 12,2 3,2 7,4 9,6l0 0 1 1c3,3 5,6 7,10zm-222 205l162 0 0 -162 -162 0 0 162zm222 -553c2,4 2,8 2,12l0 224c0,4 0,8 -2,12 -2,4 -4,7 -7,10 -3,3 -6,5 -10,7 -4,1 -8,2 -12,2l-224 0c-4,0 -8,-1 -12,-2 -2,-1 -5,-2 -7,-4l0 0 -3 -3c-3,-3 -5,-6 -7,-10 -1,-4 -2,-8 -2,-12l0 -224c0,-4 1,-8 2,-12 2,-4 4,-7 7,-10 3,-3 6,-5 10,-7 4,-1 8,-2 12,-2l224 0c4,0 8,1 12,2 4,2 7,4 10,7 3,3 5,6 7,10zm-222 205l162 0 0 -162 -162 0 0 162zm-444 740c-1,-4 -2,-8 -2,-12l0 -224c0,-5 1,-9 2,-12 2,-4 4,-8 7,-11 3,-2 6,-5 10,-6 4,-2 8,-3 12,-3l224 0c4,0 8,1 12,3 4,1 7,4 10,6 3,3 5,7 7,11 2,3 2,7 2,12l0 224c0,4 0,8 -2,12 -2,3 -4,7 -7,10 -3,3 -6,5 -10,6 -4,2 -8,3 -12,3l-224 0c-4,0 -8,-1 -12,-3 -4,-1 -7,-3 -10,-6 -3,-3 -5,-7 -7,-10zm222 -205l-162 0 0 161 162 0 0 -161zm-222 -144c-1,-3 -2,-7 -2,-12l0 -224c0,-4 1,-8 2,-12 2,-4 4,-7 7,-10 3,-3 6,-5 10,-7 3,-1 6,-1 9,-2l0 0c77,0 154,0 231,0l0 0c3,1 6,1 8,2 4,2 7,4 10,7 3,3 5,6 7,10 2,4 2,8 2,12l0 224c0,5 0,9 -2,12 -2,4 -4,8 -7,10 -3,3 -6,6 -10,7 -4,2 -8,3 -12,3l-224 0c-4,0 -8,-1 -12,-3 -4,-1 -7,-4 -10,-7 -3,-2 -5,-6 -7,-10zm222 -205l-162 0 0 162 162 0 0 -162zm-222 -143c-1,-4 -2,-8 -2,-12l0 -224c0,-4 1,-8 2,-12 2,-4 4,-7 7,-10 3,-3 6,-5 10,-7 4,-1 8,-2 12,-2l224 0c4,0 8,1 12,2 4,2 7,4 10,7 3,3 5,6 7,10 2,4 2,8 2,12l0 224c0,4 0,8 -2,12 -2,4 -4,7 -7,10 -3,3 -6,5 -10,7 -4,1 -8,2 -12,2l-224 0c-4,0 -8,-1 -12,-2 -4,-2 -7,-4 -10,-7 -3,-3 -5,-6 -7,-10zm222 -205l-162 0 0 162 162 0 0 -162zm-193 -821l986 0c4,0 8,1 12,2 3,2 6,4 9,6l0 0 1 1c3,3 5,6 7,10 1,4 2,8 2,12l0 621c0,4 0,8 -2,12 -1,4 -3,7 -6,9l0 0 -1 1c-3,3 -6,6 -10,7 -4,2 -8,2 -12,2l-986 0c-4,0 -8,0 -12,-2 -4,-1 -7,-4 -10,-7 -3,-2 -5,-6 -7,-10 -1,-3 -2,-8 -2,-12l0 -621c0,-4 1,-8 2,-12 2,-3 4,-7 7,-10 3,-3 6,-5 10,-7 4,-1 8,-2 12,-2zm31 621l924 0 0 -558 -924 0 0 558z"/>
 </g>
</svg>
