<?xml version="1.0" encoding="UTF-8"?>
<!DOCTYPE svg PUBLIC "-//W3C//DTD SVG 1.1//EN" "http://www.w3.org/Graphics/SVG/1.1/DTD/svg11.dtd">
<!-- Creator: CorelDRAW X8 -->
<svg xmlns="http://www.w3.org/2000/svg" xml:space="preserve" width="19.3574mm" height="29.3442mm" version="1.1" style="shape-rendering:geometricPrecision; text-rendering:geometricPrecision; image-rendering:optimizeQuality; fill-rule:evenodd; clip-rule:evenodd"
viewBox="0 0 1671 2532"
 xmlns:xlink="http://www.w3.org/1999/xlink">
 <defs>
  <style type="text/css">
   <![CDATA[
    .fil0 {fill:#0A1136}
    .fil1 {fill:#AE9A66}
   ]]>
  </style>
 </defs>
 <g id="Слой_x0020_1">
  <metadata id="CorelCorpID_0Corel-Layer"/>
  <path class="fil0" d="M134 0l1405 0c17,0 34,4 50,10 16,7 31,17 43,29 12,12 22,26 29,43 6,15 10,32 10,50l0 1769 -77 0 0 -1769c0,-7 -2,-15 -4,-21 -3,-7 -7,-13 -12,-18l-2 -1c-5,-5 -10,-9 -16,-11 -6,-2 -12,-4 -19,-4l-1410 0c-6,0 -13,2 -18,4 -7,3 -12,6 -17,11l-1 1c-5,5 -10,11 -12,18 -3,6 -5,14 -5,21l0 124c0,5 -1,10 -2,14 -2,5 -5,9 -9,13 -3,3 -7,6 -12,8 -5,2 -10,3 -15,3 -5,0 -10,-1 -15,-3 -4,-2 -8,-5 -12,-8 -3,-4 -6,-8 -8,-13 -2,-4 -3,-9 -3,-14l0 -124c0,-18 3,-35 10,-50 7,-17 16,-31 29,-43 12,-12 26,-22 42,-29 16,-6 33,-10 51,-10zm-56 630l0 1271 -76 0 0 -1271c0,-5 1,-10 3,-14 2,-5 5,-9 8,-13 4,-3 8,-6 12,-8 5,-2 10,-3 15,-3 5,0 10,1 15,3 5,2 9,5 12,8 4,4 7,8 9,13 1,4 2,9 2,14zm1135 1271l-72 0 0 -314c0,-5 1,-10 3,-15 2,-4 4,-9 8,-12 7,-7 16,-11 27,-11l275 0c6,0 11,1 15,3 5,2 9,4 13,8 3,3 6,8 8,12 2,5 3,10 3,15l0 275c0,5 -1,10 -3,14 -2,5 -5,9 -8,13l-3 3 -1 0c-2,2 -6,4 -9,5 -4,2 -9,3 -15,3 -5,0 -10,-1 -14,-3 -5,-2 -9,-5 -13,-8l-3 -3 0 -1c-2,-2 -4,-5 -5,-9 -2,-4 -3,-9 -3,-14l0 -236 -199 0 0 275 -4 0zm-1173 -1419l-2 0c-4,0 -9,-1 -12,-2 -4,-1 -8,-3 -11,-6 -4,-3 -7,-6 -9,-10 -2,-3 -4,-7 -5,-11 -1,-5 -1,-11 0,-15 0,-5 2,-10 5,-14 2,-5 6,-8 10,-11 4,-3 9,-5 14,-6l3 -1c5,-2 10,-2 15,-1 5,1 10,3 14,5 4,3 8,6 11,11 3,4 5,8 6,13l0 0c1,5 2,10 1,15 -1,5 -3,10 -5,14 -3,5 -7,8 -11,11 -4,3 -8,5 -13,6l-1 0c-3,1 -7,2 -10,2zm1139 639l275 0c6,0 11,1 15,3 3,1 7,3 9,5l1 0 3 3c3,3 6,8 8,12 2,5 3,10 3,15l0 275c0,6 -1,11 -3,15 -2,5 -5,9 -8,13 -4,3 -8,6 -13,8 -4,2 -9,3 -15,3l-275 0c-5,0 -10,-1 -15,-3 -4,-2 -9,-5 -12,-8 -4,-4 -6,-8 -8,-13 -2,-4 -3,-9 -3,-15l0 -275c0,-5 1,-10 3,-15 1,-4 4,-8 7,-11l0 0 1 -1c3,-4 8,-6 12,-8 5,-2 10,-3 15,-3zm38 275l199 0 0 -199 -199 0 0 199zm-207 176c2,5 3,10 3,15l0 276c0,5 -1,10 -3,14 -2,5 -4,9 -8,13l-1 1 0 0c-4,3 -7,5 -11,7 -4,1 -7,2 -11,3l0 0c-94,0 -189,0 -284,0l0 0c-3,-1 -7,-2 -10,-3 -5,-2 -9,-5 -13,-8 -3,-4 -6,-8 -8,-13 -2,-4 -3,-9 -3,-14l0 -276c0,-5 1,-10 3,-15 2,-3 4,-6 6,-9l0 -1 2 -2c4,-4 8,-6 13,-8 4,-2 9,-3 14,-3l276 0c5,0 10,1 15,3 4,1 7,4 11,7l0 0 1 1c4,3 6,8 8,12zm-272 252l199 0 0 -198 -199 0 0 198zm272 -680c2,5 3,10 3,15l0 275c0,6 -1,11 -3,15 -2,5 -4,9 -8,13 -3,3 -8,6 -12,8 -5,2 -10,3 -15,3l-276 0c-5,0 -10,-1 -14,-3 -3,-1 -6,-3 -9,-5l0 0 -4 -3c-3,-4 -6,-8 -8,-13 -2,-4 -3,-9 -3,-15l0 -275c0,-5 1,-10 3,-15 2,-4 5,-9 8,-12 4,-4 8,-6 13,-8 4,-2 9,-3 14,-3l276 0c5,0 10,1 15,3 4,2 9,4 12,8 4,3 6,8 8,12zm-272 252l199 0 0 -199 -199 0 0 199zm-546 481c-2,-4 -3,-9 -3,-14l0 -276c0,-5 1,-10 3,-15 2,-4 5,-8 8,-12 4,-4 8,-6 13,-8 3,-2 7,-3 10,-3l0 0c95,0 190,0 284,0l0 0c4,0 7,1 11,3 4,2 9,5 12,8 4,4 6,8 8,12 2,5 3,10 3,15l0 276c0,5 -1,10 -3,14 -2,5 -4,9 -8,13 -3,3 -8,6 -12,8 -5,2 -10,3 -15,3l-275 0c-6,0 -11,-1 -15,-3 -5,-2 -9,-5 -13,-8 -3,-4 -6,-8 -8,-13zm273 -251l-199 0 0 198 199 0 0 -198zm-273 -177c-2,-4 -3,-9 -3,-15l0 -275c0,-5 1,-10 3,-15 2,-4 5,-9 8,-12 4,-4 8,-6 13,-8 4,-2 9,-3 15,-3l275 0c5,0 10,1 15,3 4,2 9,4 12,8 4,3 6,8 8,12 2,5 3,10 3,15l0 275c0,6 -1,11 -3,15 -2,5 -4,9 -8,13 -3,3 -8,6 -12,8 -5,2 -10,3 -15,3l-275 0c-6,0 -11,-1 -15,-3 -5,-2 -9,-5 -13,-8 -3,-4 -6,-8 -8,-13zm273 -252l-199 0 0 199 199 0 0 -199zm-237 -1009l1212 0c5,0 10,1 14,3 4,2 8,4 11,7l0 0 2 1c3,4 6,8 8,13 2,4 3,9 3,15l0 763c0,5 -1,10 -3,14 -2,5 -4,8 -7,12l0 0 -1 1c-4,3 -8,6 -13,8 -4,2 -9,3 -14,3l-1212 0c-6,0 -11,-1 -15,-3 -5,-2 -9,-5 -13,-8 -3,-4 -6,-8 -8,-13 -2,-4 -3,-9 -3,-14l0 -763c0,-6 1,-11 3,-15 2,-5 5,-9 8,-13 4,-3 8,-6 13,-8 4,-2 9,-3 15,-3zm38 763l1135 0 0 -686 -1135 0 0 686z"/>
  <path class="fil1" d="M1594 2400l0 -507 77 0 0 507c0,18 -4,35 -10,51 -7,16 -17,31 -29,43 -12,12 -27,22 -43,28 -14,6 -30,10 -46,10l0 0 -1414 0 0 0c-16,0 -31,-4 -46,-10 -16,-6 -30,-16 -42,-28 -13,-13 -22,-27 -29,-43 -7,-16 -10,-33 -10,-51l0 -507 76 0 0 507c0,8 2,15 5,21 2,7 7,13 12,18l1 2c5,4 10,8 17,10 5,3 12,4 18,5l1410 0c7,-1 13,-2 19,-5 6,-2 12,-6 16,-10l2 -2c5,-5 9,-11 12,-18 2,-6 4,-13 4,-21zm-449 -507l72 0 0 359 199 0 0 -31c0,-5 1,-10 3,-14 2,-5 5,-9 8,-13 4,-3 8,-6 13,-8 4,-2 9,-3 14,-3 6,0 11,1 15,3 5,2 9,5 13,8 3,4 6,8 8,13 2,4 3,9 3,14l0 70c0,5 -1,10 -3,14 -2,5 -5,9 -8,13l-4 4 0 -1c-3,2 -6,4 -9,5 -3,1 -7,2 -10,3l0 0 -284 0 0 0c-4,-1 -7,-2 -11,-3 -4,-2 -9,-5 -12,-8l-1 -2c-7,-6 -10,-15 -10,-25l0 -398 4 0zm342 126c3,4 5,8 7,13l0 1c1,5 1,10 0,14 -1,5 -3,10 -5,14 -3,4 -6,8 -10,11 -4,3 -9,5 -14,6l-1 0 -1 1c0,0 -1,0 -2,0 -3,1 -5,1 -8,1 -5,0 -9,-1 -13,-2 -4,-1 -8,-3 -11,-6 -3,-3 -6,-6 -9,-10 -2,-3 -4,-7 -5,-11 -1,-5 -1,-10 0,-15 1,-5 2,-10 5,-14 3,-5 6,-8 10,-11 4,-3 9,-5 14,-7l3 0c6,-1 11,-2 15,-1 5,1 10,3 14,5 5,3 8,7 11,11zm-788 -42l276 0c11,0 20,4 27,11l1 1c3,4 6,7 7,12 2,4 3,9 3,14l0 276c0,10 -4,20 -11,27 -3,3 -8,6 -12,8 -5,2 -10,3 -15,3l-276 0c-5,0 -10,-1 -14,-3 -5,-2 -9,-5 -13,-8 -3,-4 -6,-8 -8,-13 -2,-4 -3,-9 -3,-14l0 -276c0,-5 1,-10 3,-14 2,-5 5,-9 8,-13l3 -3 1 0c2,-2 5,-4 9,-5 4,-2 9,-3 14,-3zm39 275l199 0 0 -198 -199 0 0 198zm-546 53c-2,-4 -3,-9 -3,-14l0 -276c0,-5 1,-10 3,-14 2,-5 5,-9 8,-13 4,-3 8,-6 13,-8 4,-2 9,-3 15,-3l275 0c5,0 10,1 15,3 4,2 9,5 12,8 4,4 6,8 8,13 2,4 3,9 3,14l0 276c0,5 -1,10 -3,14 -2,5 -4,9 -8,13 -3,3 -8,6 -12,8 -5,2 -10,3 -15,3l-275 0c-6,0 -11,-1 -15,-3 -5,-2 -9,-5 -13,-8 -3,-4 -6,-8 -8,-13zm273 -251l-199 0 0 198 199 0 0 -198z"/>
 </g>
</svg>
