<?xml version="1.0" encoding="UTF-8"?>
<!DOCTYPE svg PUBLIC "-//W3C//DTD SVG 1.1//EN" "http://www.w3.org/Graphics/SVG/1.1/DTD/svg11.dtd">
<!-- Creator: CorelDRAW X8 -->
<svg xmlns="http://www.w3.org/2000/svg" xml:space="preserve" width="19.3574mm" height="29.3442mm" version="1.1" style="shape-rendering:geometricPrecision; text-rendering:geometricPrecision; image-rendering:optimizeQuality; fill-rule:evenodd; clip-rule:evenodd"
viewBox="0 0 517 784"
 xmlns:xlink="http://www.w3.org/1999/xlink">
 <defs>
  <style type="text/css">
   <![CDATA[
    .fil0 {fill:#0A1136}
    .fil1 {fill:#AE9A66}
   ]]>
  </style>
 </defs>
 <g id="Слой_x0020_1">
  <metadata id="CorelCorpID_0Corel-Layer"/>
  <path class="fil0" d="M41 0l435 0c6,0 11,1 16,3 5,2 10,5 13,9 4,4 7,8 9,13 2,5 3,10 3,16l0 352 -23 0 0 -352c0,-2 -1,-5 -2,-7 -1,-2 -2,-4 -3,-5l-1 -1c-1,-1 -3,-2 -5,-3 -2,-1 -4,-1 -6,-1l-436 0c-2,0 -4,0 -6,1 -2,1 -4,2 -5,3l-1 1c-1,1 -3,3 -3,5 -1,2 -2,5 -2,7l0 38c0,2 0,3 -1,5 0,1 -1,2 -2,4 -1,1 -3,2 -4,2 -1,1 -3,1 -5,1 -1,0 -3,0 -4,-1 -2,0 -3,-1 -4,-2 -1,-1 -2,-3 -3,-4 0,-2 0,-3 0,-5l0 -38c0,-6 1,-11 3,-16 2,-5 5,-9 9,-13 3,-4 8,-7 13,-9 5,-2 10,-3 15,-3zm-17 195l0 198 -23 0 0 -198c0,-1 0,-3 0,-4 1,-2 2,-3 3,-4 1,-1 2,-2 4,-3 1,0 3,-1 4,-1 2,0 4,1 5,1 1,1 3,2 4,3 1,1 2,2 2,4 1,1 1,3 1,4zm437 198l-22 0 0 -22 -62 0 0 22 -24 0 0 -34c0,-2 1,-3 1,-5 1,-1 1,-2 2,-3l0 0 1 0c1,-2 2,-2 4,-3 1,-1 3,-1 4,-1l85 0c2,0 4,0 5,1 1,0 2,1 3,2l0 0 1 1c1,1 2,2 2,3 1,2 1,3 1,5l0 34 -1 0zm-149 0l-22 0 0 -22 -62 0 0 22 -23 0 0 -34c0,-2 0,-3 1,-5 0,-1 1,-2 2,-3 1,-2 3,-2 4,-3 1,-1 3,-1 5,-1l85 0c2,0 3,0 4,1 2,1 3,1 4,3 2,2 4,5 4,8l0 34 -2 0zm-146 0l-22 0 0 -22 -62 0 0 22 -23 0 0 -34c0,-2 0,-3 0,-5 1,-1 2,-2 3,-3 1,-2 2,-2 4,-3 1,-1 3,-1 4,-1l86 0c1,0 3,0 4,1 2,1 3,1 4,3 1,1 2,2 3,3 0,2 1,3 1,5l0 34 -2 0zm-153 -244l-1 0c-2,0 -3,0 -4,0 -1,-1 -2,-1 -4,-2 -1,-1 -1,-2 -2,-3 -1,-1 -1,-2 -2,-4 0,-1 0,-3 0,-4 0,-2 1,-4 2,-5 1,-1 2,-2 3,-3 1,-1 3,-2 4,-2l1 0c2,-1 3,-1 5,-1 1,1 3,1 4,2 2,1 3,2 4,3 1,1 1,3 2,4l0 1c0,1 0,3 0,4 -1,2 -1,3 -2,4 -1,2 -2,3 -3,4 -1,1 -3,1 -4,2l-1 0c0,0 -2,0 -2,0zm57 -91l376 0c1,0 3,1 4,1 2,1 3,1 4,2l0 0 0 1c1,1 2,2 3,4 0,1 1,3 1,4l0 237c0,1 -1,3 -1,4 -1,1 -2,2 -2,3l0 1 -1 0c-1,1 -2,2 -4,2 -1,1 -3,1 -4,1l-376 0c-1,0 -3,0 -4,-1 -2,0 -3,-1 -4,-2 -1,-1 -2,-2 -3,-4 0,-1 0,-3 0,-4l0 -237c0,-1 0,-3 0,-4 1,-2 2,-3 3,-4 1,-1 2,-2 4,-3 1,0 3,-1 4,-1zm12 237l352 0 0 -213 -352 0 0 213z"/>
  <path class="fil1" d="M494 743l0 -352 23 0 0 352c0,6 -1,11 -3,16 -2,5 -5,9 -9,13 -3,4 -8,7 -13,9 -4,2 -9,3 -14,3l0 0 -438 0 0 0c-5,0 -10,-1 -14,-3 -5,-2 -10,-5 -13,-9 -4,-4 -7,-8 -9,-13 -2,-5 -3,-10 -3,-16l0 -352 23 0 0 352c0,3 1,5 2,7 0,2 2,4 3,5l1 1c1,1 3,2 5,3 2,1 4,1 6,1l436 0c2,0 4,0 6,-1 2,-1 4,-2 5,-3l1 -1c1,-1 2,-3 3,-5 1,-2 2,-4 2,-7zm-434 -352l22 0 0 41 62 0 0 -41 24 0 0 53c0,2 -1,3 -1,5 -1,1 -2,3 -3,4 -1,1 -2,2 -4,2 -1,1 -3,1 -4,1l-86 0c-1,0 -3,0 -4,-1 -2,0 -3,-1 -4,-2 -1,-1 -2,-3 -3,-4 0,-2 0,-3 0,-5l0 -53 1 0zm146 0l22 0 0 41 62 0 0 -41 24 0 0 53c0,2 -1,3 -1,5 -1,1 -2,3 -3,4 -2,2 -5,3 -8,3l-85 0c-2,0 -4,0 -5,-1 -1,0 -2,-1 -3,-1l0 0 -1 -1c-1,-1 -2,-3 -2,-4 -1,-2 -1,-3 -1,-5l0 -53 1 0zm149 0l22 0 0 41 62 0 0 -41 23 0 0 53c0,2 0,3 -1,5 0,1 -1,3 -2,4 -1,1 -3,2 -4,2 -1,1 -3,1 -5,1l-85 0c-1,0 -3,0 -4,-1 -2,0 -3,-1 -4,-2 -1,-1 -2,-3 -3,-4 0,-2 -1,-3 -1,-5l0 -53 2 0zm106 234c0,1 1,3 2,4l0 0c0,2 0,4 0,5 -1,2 -1,3 -2,4 -1,2 -2,3 -3,4 -1,1 -3,1 -4,2l-1 0 0 0c0,0 0,0 -1,0 -1,0 -1,0 -2,0 -1,0 -3,0 -4,0 -1,-1 -2,-2 -4,-2 -1,-1 -1,-2 -2,-3 -1,-1 -1,-3 -2,-4 0,-2 0,-3 0,-5 0,-1 1,-3 2,-4 1,-1 2,-2 3,-3 1,-1 3,-2 4,-2l1 -1c2,0 3,0 5,0 1,1 3,1 4,2 2,1 3,2 4,3zm-6 -38c-1,1 -3,1 -5,1 -1,0 -3,0 -4,-1 -2,0 -3,-1 -4,-2l-1 -1 0 0c-1,-1 -1,-2 -2,-3 0,-1 0,-3 0,-5l0 -73 -62 0 0 194 62 0 0 -9c0,-2 0,-3 0,-5 1,-1 2,-2 3,-3 1,-2 2,-2 4,-3 1,-1 3,-1 4,-1 2,0 4,0 5,1 1,1 3,1 4,3 1,1 2,2 2,3 1,2 1,3 1,5l0 21c0,2 0,4 -1,5 0,1 -1,3 -2,4l-1 1 0 0c-1,0 -2,1 -3,1 -1,1 -2,1 -3,1l0 0 -88 0 0 0c-1,0 -2,0 -3,-1 -2,0 -3,-1 -4,-2l-1 -1c-1,-1 -1,-2 -2,-3 0,-1 -1,-3 -1,-5l0 -218c0,-1 1,-3 1,-4 1,-2 2,-3 3,-4 1,-1 2,-2 4,-2 1,-1 3,-1 4,-1l85 0c2,0 4,0 5,1 1,0 3,1 4,2 1,1 2,2 2,4 1,1 1,3 1,4l0 85c0,2 0,4 -1,5 0,1 -1,3 -2,4l-1 1 0 0c-1,0 -2,1 -3,1zm-238 25l85 0c3,0 6,2 8,4l1 0c1,1 1,2 2,4 0,1 1,2 1,4l0 85c0,4 -2,7 -4,9 -1,1 -2,2 -4,2 -1,1 -2,1 -4,1l-85 0c-2,0 -4,0 -5,-1 -1,0 -3,-1 -4,-2 -1,-1 -2,-3 -2,-4 -1,-1 -1,-3 -1,-5l0 -85c0,-2 0,-3 1,-4 0,-2 1,-3 2,-4l1 -1 0 0c1,-1 2,-1 3,-2 1,0 3,-1 5,-1zm11 85l62 0 0 -61 -62 0 0 61zm85 -210c0,1 1,3 1,4l0 86c0,1 -1,3 -1,4 -1,2 -2,3 -3,4l0 1c-1,1 -2,1 -4,2 -1,0 -2,0 -3,1l0 0c-29,0 -58,0 -88,0l0 0c-1,-1 -2,-1 -3,-1 -1,-1 -3,-2 -4,-3 -1,-1 -2,-2 -2,-4 -1,-1 -1,-3 -1,-4l0 -86c0,-1 0,-3 1,-4 0,-1 1,-2 1,-3l0 0 1 -1c1,-1 3,-2 4,-2 1,-1 3,-1 5,-1l85 0c2,0 3,0 4,1 2,0 3,1 4,2l0 0 0 0c1,1 2,2 3,4zm-85 78l62 0 0 -62 -62 0 0 62zm-169 149c0,-1 0,-3 0,-5l0 -85c0,-2 0,-3 0,-4 1,-2 2,-3 3,-4 1,-1 2,-2 4,-3 1,0 3,-1 4,-1l86 0c1,0 3,1 4,1 2,1 3,2 4,3 1,1 2,2 3,4 0,1 1,2 1,4l0 85c0,2 -1,4 -1,5 -1,1 -2,3 -3,4 -1,1 -2,2 -4,2 -1,1 -3,1 -4,1l-86 0c-1,0 -3,0 -4,-1 -2,0 -3,-1 -4,-2 -1,-1 -2,-3 -3,-4zm85 -78l-62 0 0 61 62 0 0 -61zm-85 -55c0,-1 0,-3 0,-4l0 -86c0,-1 0,-3 0,-4 1,-1 2,-3 3,-4 1,-1 2,-2 4,-2 1,-1 2,-1 3,-1l0 0c29,0 59,0 88,0l0 0c1,0 2,0 3,1 2,0 3,1 4,2 1,1 2,2 3,4 0,1 1,3 1,5l0 85c0,1 -1,3 -1,4 -1,2 -2,3 -3,4 -1,1 -2,2 -4,3 -1,0 -3,1 -4,1l-86 0c-1,0 -3,-1 -4,-1 -2,-1 -3,-2 -4,-3 -1,-1 -2,-2 -3,-4zm85 -78l-62 0 0 62 62 0 0 -62z"/>
 </g>
</svg>
