<?xml version="1.0" encoding="UTF-8"?>
<!DOCTYPE svg PUBLIC "-//W3C//DTD SVG 1.1//EN" "http://www.w3.org/Graphics/SVG/1.1/DTD/svg11.dtd">
<!-- Creator: CorelDRAW X8 -->
<svg xmlns="http://www.w3.org/2000/svg" xml:space="preserve" width="19.3574mm" height="29.3442mm" version="1.1" style="shape-rendering:geometricPrecision; text-rendering:geometricPrecision; image-rendering:optimizeQuality; fill-rule:evenodd; clip-rule:evenodd"
viewBox="0 0 306 464"
 xmlns:xlink="http://www.w3.org/1999/xlink">
 <defs>
  <style type="text/css">
   <![CDATA[
    .fil0 {fill:#0A1136}
    .fil1 {fill:#AE9A66}
   ]]>
  </style>
 </defs>
 <g id="Слой_x0020_1">
  <metadata id="CorelCorpID_0Corel-Layer"/>
  <path class="fil0" d="M25 0l257 0c3,0 6,1 9,2 3,1 6,3 8,5 2,2 4,5 5,8 1,3 2,6 2,9l0 93 -14 0 0 -93c0,-1 0,-2 -1,-4 0,-1 -1,-2 -2,-3l0 0c-1,-1 -2,-2 -3,-2 -1,-1 -2,-1 -4,-1l-258 0c-1,0 -2,0 -3,1 -2,0 -3,1 -3,2l-1 0c-1,1 -1,2 -2,3 0,2 -1,3 -1,4l0 23c0,1 0,2 0,3 -1,0 -1,1 -2,2 0,0 -1,1 -2,1 -1,1 -2,1 -3,1 -1,0 -2,0 -2,-1 -1,0 -2,-1 -3,-1 0,-1 -1,-2 -1,-2 0,-1 -1,-2 -1,-3l0 -23c0,-3 1,-6 2,-9 1,-3 3,-6 5,-8 3,-2 5,-4 8,-5 3,-1 6,-2 10,-2zm-11 115l0 2 -14 0 0 -2c0,0 1,-1 1,-2 0,-1 1,-2 1,-2 1,-1 2,-2 3,-2 0,0 1,-1 2,-1 1,0 2,1 3,1 1,0 2,1 2,2 1,0 1,1 2,2 0,1 0,2 0,2zm256 2l-13 0 0 -68 -208 0 0 68 -14 0 0 -76c0,0 0,-1 0,-2 1,-1 1,-2 2,-2 0,-1 1,-2 2,-2 1,0 2,-1 3,-1l222 0c1,0 2,1 2,1 1,0 2,1 2,1l0 0 1 1c0,0 1,1 1,2 1,1 1,2 1,2l0 76 -1 0zm-263 -29l0 0c-1,0 -2,0 -2,0 -1,0 -2,-1 -2,-1 -1,-1 -1,-1 -2,-2 0,-1 -1,-1 -1,-2 0,-1 0,-2 0,-3 0,-1 1,-2 1,-2 1,-1 1,-2 2,-2 1,-1 1,-1 2,-2l1 0c1,0 2,0 3,0 1,0 2,1 2,1 1,1 2,1 2,2 1,1 1,2 2,3l0 0c0,1 0,1 0,2 -1,1 -1,2 -1,3 -1,1 -1,1 -2,2 -1,0 -2,1 -3,1l0 0c0,0 -1,0 -2,0z"/>
  <path class="fil1" d="M292 440l0 -324 14 0 0 324c0,3 -1,6 -2,9 -1,3 -3,6 -5,8 -2,2 -5,4 -8,5 -3,1 -5,2 -8,2l0 0 -259 0 0 0c-3,0 -6,-1 -9,-2 -3,-1 -5,-3 -8,-5 -2,-2 -4,-5 -5,-8 -1,-3 -2,-6 -2,-9l0 -324 14 0 0 324c0,1 1,2 1,4 1,1 1,2 2,3l1 0c0,1 2,2 3,2 1,1 2,1 3,1l258 0c2,0 3,0 4,-1 1,0 2,-1 3,-2l0 0c1,-1 2,-2 2,-3 1,-2 1,-3 1,-4zm-257 -324l14 0 0 58 208 0 0 -58 14 0 0 65c0,1 0,2 -1,3 0,1 -1,1 -1,2l0 0 0 0c-1,1 -2,1 -3,2 0,0 -1,0 -2,0l-222 0c-1,0 -2,0 -3,0 -1,-1 -2,-1 -2,-2 -1,0 -1,-1 -2,-2 0,-1 0,-2 0,-3l0 -65 0 0zm238 254c0,1 0,1 1,2l0 0c0,1 0,2 0,3 0,1 -1,2 -1,3 -1,0 -1,1 -2,2 -1,0 -2,1 -3,1l0 0 0 0c0,0 0,0 0,0 -1,0 -1,0 -2,0 -1,0 -1,0 -2,0 -1,-1 -2,-1 -2,-1 -1,-1 -1,-1 -2,-2 0,-1 -1,-2 -1,-2 0,-1 0,-2 0,-3 0,-1 1,-2 1,-3 1,0 1,-1 2,-2 1,0 2,-1 3,-1l0 0c1,0 2,0 3,0 1,0 2,0 3,1 0,0 1,1 2,2zm-4 -22c-1,0 -2,0 -3,0 0,0 -1,0 -2,0 -1,-1 -2,-1 -3,-2l0 -1 0 0c0,0 -1,-1 -1,-1 0,-1 -1,-2 -1,-3l0 -43 -36 0 0 115 36 0 0 -6c0,-1 1,-2 1,-3 0,-1 1,-1 1,-2 1,-1 2,-1 3,-2 1,0 2,0 2,0 1,0 2,0 3,0 1,1 2,1 2,2 1,1 2,1 2,2 0,1 0,2 0,3l0 13c0,1 0,2 0,2 0,1 -1,2 -2,3l0 0 0 0c-1,1 -1,1 -2,1 0,0 -1,1 -2,1l0 0 -52 0 0 0c0,0 -1,-1 -2,-1 -1,0 -1,-1 -2,-1l0 -1c-1,0 -1,-1 -1,-2 -1,0 -1,-1 -1,-2l0 -129c0,-1 0,-2 1,-3 0,-1 0,-2 1,-2 1,-1 1,-1 2,-2 1,0 2,0 3,0l50 0c1,0 2,0 3,0 1,1 2,1 2,2 1,0 2,1 2,2 0,1 0,2 0,3l0 50c0,1 0,2 0,3 0,1 -1,1 -2,2l0 1 0 0c-1,0 -1,0 -2,1zm-53 -143l50 0c1,0 2,1 3,1 1,0 1,0 2,1l0 0 0 0c1,1 2,2 2,3 0,0 0,1 0,2l0 51c0,1 0,2 0,2 0,1 -1,2 -2,3 0,0 -1,1 -2,1 -1,1 -2,1 -3,1l-50 0c-1,0 -2,0 -3,-1 -1,0 -1,-1 -2,-1 -1,-1 -1,-2 -1,-2 -1,-1 -1,-2 -1,-3l0 -51c0,-1 0,-2 1,-2 0,-1 0,-2 1,-2l0 0 0 -1c1,0 1,-1 2,-1 1,0 2,-1 3,-1zm7 51l36 0 0 -37 -36 0 0 37zm-95 106l51 0c2,0 3,1 5,2l0 0c0,1 1,2 1,3 0,0 1,1 1,2l0 51c0,2 -1,3 -2,5 -1,0 -2,1 -3,1 -1,1 -1,1 -2,1l-51 0c-1,0 -2,0 -3,-1 0,0 -1,-1 -2,-1 0,-1 -1,-2 -1,-3 -1,0 -1,-1 -1,-2l0 -51c0,-1 0,-2 1,-2 0,-1 1,-2 1,-3l1 0 0 0c0,-1 1,-1 1,-1 1,-1 2,-1 3,-1zm7 51l37 0 0 -37 -37 0 0 37zm50 -125c0,1 1,2 1,3l0 50c0,1 -1,2 -1,3 0,1 -1,2 -1,2l-1 0c0,1 -1,1 -2,2 0,0 -1,0 -2,0l0 0c-17,0 -34,0 -52,0l0 0c0,0 -1,0 -2,0 0,-1 -1,-1 -2,-2 0,0 -1,-1 -1,-2 -1,-1 -1,-2 -1,-3l0 -50c0,-1 0,-2 1,-3 0,-1 0,-1 1,-2l0 0 0 0c1,-1 2,-1 2,-2 1,0 2,0 3,0l51 0c1,0 1,0 2,0 1,1 2,1 2,2l0 0 1 0c0,0 1,1 1,2zm-50 46l37 0 0 -36 -37 0 0 36zm50 -124c0,0 1,1 1,2l0 51c0,1 -1,2 -1,2 0,1 -1,2 -1,3 -1,0 -2,1 -3,1 -1,1 -1,1 -2,1l-51 0c-1,0 -2,0 -3,-1 0,0 -1,0 -1,-1l0 0 -1 0c0,-1 -1,-2 -1,-3 -1,0 -1,-1 -1,-2l0 -51c0,-1 0,-2 1,-2 0,-1 1,-2 1,-3 1,0 2,-1 2,-1 1,0 2,-1 3,-1l51 0c1,0 1,1 2,1 1,0 2,1 3,1 0,1 1,2 1,3zm-50 46l37 0 0 -37 -37 0 0 37zm-100 166c0,0 0,-1 0,-2l0 -51c0,-1 0,-2 0,-2 1,-1 1,-2 2,-3 0,0 1,-1 2,-1 1,-1 2,-1 3,-1l50 0c1,0 2,0 3,1 1,0 1,1 2,1 1,1 1,2 2,3 0,0 0,1 0,2l0 51c0,1 0,2 0,2 -1,1 -1,2 -2,3 -1,0 -1,1 -2,1 -1,1 -2,1 -3,1l-50 0c-1,0 -2,0 -3,-1 -1,0 -2,-1 -2,-1 -1,-1 -1,-2 -2,-3zm50 -46l-36 0 0 37 36 0 0 -37zm-50 -32c0,-1 0,-2 0,-3l0 -50c0,-1 0,-2 0,-3 1,-1 1,-2 2,-2 0,-1 1,-1 2,-2 1,0 1,0 2,0l0 0c17,0 35,0 52,0l0 0c1,0 1,0 2,0 1,1 1,1 2,2 1,0 1,1 2,2 0,1 0,2 0,3l0 50c0,1 0,2 0,3 -1,1 -1,2 -2,2 -1,1 -1,1 -2,2 -1,0 -2,0 -3,0l-50 0c-1,0 -2,0 -3,0 -1,-1 -2,-1 -2,-2 -1,0 -1,-1 -2,-2zm50 -46l-36 0 0 36 36 0 0 -36zm-50 -32c0,-1 0,-2 0,-3l0 -51c0,-1 0,-2 0,-2 1,-1 1,-2 2,-3 0,0 1,-1 2,-1 1,0 2,-1 3,-1l50 0c1,0 2,1 3,1 1,0 1,1 2,1 1,1 1,2 2,3 0,0 0,1 0,2l0 51c0,1 0,2 0,3 -1,0 -1,1 -2,2 -1,0 -1,1 -2,1 -1,1 -2,1 -3,1l-50 0c-1,0 -2,0 -3,-1 -1,0 -2,-1 -2,-1 -1,-1 -1,-2 -2,-2zm50 -47l-36 0 0 37 36 0 0 -37z"/>
 </g>
</svg>
