<?xml version="1.0" encoding="UTF-8"?>
<!DOCTYPE svg PUBLIC "-//W3C//DTD SVG 1.1//EN" "http://www.w3.org/Graphics/SVG/1.1/DTD/svg11.dtd">
<!-- Creator: CorelDRAW X8 -->
<svg xmlns="http://www.w3.org/2000/svg" xml:space="preserve" width="19.3574mm" height="29.3441mm" version="1.1" style="shape-rendering:geometricPrecision; text-rendering:geometricPrecision; image-rendering:optimizeQuality; fill-rule:evenodd; clip-rule:evenodd"
viewBox="0 0 217 329"
 xmlns:xlink="http://www.w3.org/1999/xlink">
 <defs>
  <style type="text/css">
   <![CDATA[
    .fil0 {fill:#AE9A66}
   ]]>
  </style>
 </defs>
 <g id="Слой_x0020_1">
  <metadata id="CorelCorpID_0Corel-Layer"/>
  <path class="fil0" d="M17 0l183 0c2,0 5,0 7,1 2,1 4,2 5,4 2,2 3,4 4,6 1,2 1,4 1,6l0 295c0,3 0,5 -1,7 -1,2 -2,4 -4,5 -1,2 -3,3 -5,4 -2,1 -4,1 -6,1l0 0c-62,0 -123,0 -184,0l0 0c-2,0 -4,0 -6,-1 -2,-1 -4,-2 -6,-4 -1,-1 -3,-3 -3,-5 -1,-2 -2,-4 -2,-7l0 -230c0,-1 0,-1 1,-2 0,-1 0,-1 1,-2 0,0 1,0 1,-1 1,0 2,0 2,0 1,0 2,0 2,0 1,1 1,1 2,1 0,1 1,1 1,2 0,1 0,1 0,2l0 230c0,1 0,2 1,3 0,1 1,2 1,2l0 0c1,1 2,2 3,2 0,0 1,0 2,0l183 0c1,0 2,0 3,0 1,0 1,-1 2,-2l0 0c1,0 1,-1 2,-2 0,-1 0,-2 0,-3l0 -295c0,-1 0,-2 0,-3 -1,0 -1,-1 -2,-2l0 0c-1,-1 -1,-1 -2,-1 -1,-1 -2,-1 -3,-1l-183 0c-1,0 -2,0 -2,1 -1,0 -2,0 -3,1l0 0c0,1 -1,2 -1,2 -1,1 -1,2 -1,3l0 16c0,1 0,2 0,2 0,1 -1,1 -1,2 -1,0 -1,1 -2,1 0,0 -1,0 -2,0 0,0 -1,0 -2,0 0,0 -1,-1 -1,-1 -1,-1 -1,-1 -1,-2 -1,0 -1,-1 -1,-2l0 -16c0,-2 1,-4 2,-6 0,-2 2,-4 3,-6 2,-2 4,-3 6,-4 2,-1 4,-1 6,-1zm176 263c1,0 1,1 1,1l0 0c0,1 0,2 0,2 0,1 0,2 0,2 -1,1 -1,1 -2,2 0,0 -1,0 -1,0l-1 0 0 0c0,0 0,0 0,0 0,1 -1,1 -1,1 -1,0 -1,0 -2,-1 0,0 -1,0 -1,0 -1,-1 -1,-1 -1,-2 -1,0 -1,-1 -1,-1 0,-1 0,-2 0,-2 0,-1 0,-1 1,-2 0,-1 1,-1 1,-1 1,-1 1,-1 2,-1l0 0c1,-1 2,-1 2,0 1,0 2,0 2,0 1,1 1,1 1,2zm-187 -200l-1 0c-1,0 -1,0 -2,-1 0,0 -1,0 -1,0 -1,-1 -1,-1 -1,-2 -1,0 -1,-1 -1,-1 0,-1 0,-1 0,-2 0,-1 0,-1 1,-2 0,0 1,-1 1,-1 1,-1 1,-1 2,-1l0 0c1,0 2,0 2,0 1,0 2,0 2,0 1,1 1,1 2,2 0,0 0,1 0,1l0 1c0,0 0,1 0,1 0,1 0,2 0,2 -1,1 -1,1 -2,2 0,0 -1,0 -1,0l-1 1c0,0 0,0 0,0zm185 184c0,0 -1,0 -2,0 0,0 -1,0 -2,0 0,0 -1,-1 -1,-1l-1 -1 0 0c0,0 0,-1 0,-1 -1,-1 -1,-1 -1,-2l0 -31 -26 0 0 82 26 0 0 -4c0,-1 0,-1 1,-2 0,-1 0,-1 1,-2 0,0 1,0 1,-1 1,0 2,0 2,0 1,0 2,0 2,0 1,1 1,1 2,1 0,1 1,1 1,2 0,1 0,1 0,2l0 9c0,1 0,1 0,2 0,0 -1,1 -1,2l-1 0 0 0c0,0 0,0 -1,1 0,0 -1,0 -1,0l0 0c-13,0 -25,0 -37,0l0 0c-1,0 -1,0 -2,0 0,-1 -1,-1 -1,-1l0 -1c-1,0 -1,-1 -1,-1 0,-1 -1,-1 -1,-2l0 -92c0,-1 1,-2 2,-3 0,-1 1,-1 1,-1 1,0 2,-1 2,-1l36 0c1,0 2,1 2,1 1,0 1,0 2,1 0,0 1,1 1,2 0,0 0,1 0,1l0 36c0,1 0,1 0,2 0,1 -1,1 -1,2l-1 0 0 0c0,0 0,1 -1,1zm-38 -101l36 0c1,0 2,0 2,0 1,0 1,1 1,1l0 0 1 0c0,1 1,1 1,2 0,0 0,1 0,2l0 36c0,0 0,1 0,2 0,0 -1,1 -1,1 -1,1 -1,1 -2,1 0,0 -1,1 -2,1l-36 0c0,0 -1,-1 -2,-1 0,0 -1,0 -1,-1 -1,0 -1,-1 -1,-1 0,-1 -1,-2 -1,-2l0 -36c0,-1 1,-2 1,-2 0,-1 0,-1 1,-2l0 0c0,0 1,-1 1,-1 1,0 2,0 2,0zm5 36l26 0 0 -26 -26 0 0 26zm-67 75l36 0c0,0 1,0 2,1 0,0 1,0 1,1l1 0c0,0 0,1 0,1 1,1 1,1 1,2l0 36c0,1 0,1 -1,2 0,0 0,1 -1,2 0,0 -1,0 -1,1 -1,0 -2,0 -2,0l-36 0c-1,0 -1,0 -2,0 -1,-1 -1,-1 -2,-1 0,-1 0,-2 -1,-2 0,-1 0,-1 0,-2l0 -36c0,-1 0,-1 0,-2 1,0 1,-1 1,-1l1 -1 0 0c0,0 1,0 1,0 1,-1 1,-1 2,-1zm5 36l26 0 0 -26 -26 0 0 26zm35 -88c1,0 1,1 1,1l0 36c0,1 0,2 -1,2 0,1 0,1 -1,2l0 0 0 0c0,0 -1,1 -1,1 -1,0 -1,0 -2,0l0 0 -37 0 0 0c0,0 0,0 -1,0 -1,0 -1,-1 -2,-1 0,-1 0,-1 -1,-2 0,0 0,-1 0,-2l0 -36c0,0 0,-1 0,-1 1,-1 1,-1 1,-2l0 0 0 0c1,-1 1,-1 2,-1 1,0 1,-1 2,-1l36 0c0,0 1,1 2,1 0,0 1,0 1,1l0 0 0 0c1,0 1,1 1,2zm-35 32l26 0 0 -26 -26 0 0 26zm35 -88c1,0 1,1 1,2l0 36c0,0 0,1 -1,2 0,0 0,1 -1,1 0,1 -1,1 -1,1 -1,0 -2,1 -2,1l-36 0c-1,0 -1,-1 -2,-1 0,0 -1,0 -1,0l0 0 -1 -1c0,0 0,-1 -1,-1 0,-1 0,-2 0,-2l0 -36c0,-1 0,-2 0,-2 1,-1 1,-1 1,-2 1,0 1,-1 2,-1 1,0 1,0 2,0l36 0c1,0 2,0 3,1 1,1 1,1 1,2zm-35 33l26 0 0 -26 -26 0 0 26zm-71 118c0,-1 0,-1 0,-2l0 -36c0,-1 0,-1 0,-2 0,0 1,-1 1,-1 1,-1 1,-1 2,-1 0,-1 1,-1 2,-1l35 0c1,0 2,0 2,1 1,0 2,0 2,1 0,0 1,1 1,1 0,1 0,1 0,2l0 36c0,1 0,1 0,2 0,0 -1,1 -1,2 0,0 -1,0 -2,1 0,0 -1,0 -2,0l-35 0c-1,0 -2,0 -2,0 -1,-1 -1,-1 -2,-1 0,-1 -1,-1 -1,-2zm35 -33l-25 0 0 26 25 0 0 -26zm-35 -23c0,0 0,-1 0,-2l0 -36c0,0 0,-1 0,-1 0,-1 1,-2 1,-2 1,-1 1,-1 2,-1 0,0 1,0 1,-1l0 0 37 0 0 0c0,1 1,1 1,1 1,0 2,0 2,1 0,0 1,1 1,2 0,0 0,1 0,1l0 36c0,1 0,2 0,2 0,1 -1,1 -1,2 0,0 -1,1 -2,1 0,0 -1,0 -2,0l-35 0c-2,0 -3,0 -4,-1 0,-1 -1,-1 -1,-2zm35 -33l-25 0 0 26 25 0 0 -26zm-35 -22c0,-1 0,-2 0,-2l0 -36c0,-1 0,-2 0,-2 0,-1 1,-1 1,-2 1,0 1,-1 2,-1 0,0 1,0 2,0l35 0c1,0 2,0 2,0 1,0 2,1 2,1 0,1 1,1 1,2 0,0 0,1 0,2l0 36c0,0 0,1 0,2 0,0 -1,1 -1,1 0,1 -1,1 -2,1 0,0 -1,1 -2,1l-35 0c-1,0 -2,-1 -2,-1 -1,0 -1,0 -2,-1 0,0 -1,-1 -1,-1zm35 -33l-25 0 0 26 25 0 0 -26zm-30 -132l157 0c1,0 2,1 2,1 1,0 1,0 2,1l0 0c0,0 1,1 1,2 0,0 0,1 0,1l0 100c0,0 0,1 0,2 0,0 -1,1 -1,1l0 0c-1,1 -1,1 -2,1 0,1 -1,1 -2,1l-157 0c-1,0 -2,0 -2,-1 -1,0 -1,0 -2,-1 0,0 -1,-1 -1,-1 0,-1 0,-2 0,-2l0 -100c0,0 0,-1 0,-1 0,-1 1,-2 1,-2 1,-1 1,-1 2,-1 0,0 1,-1 2,-1zm5 100l147 0 0 -90 -147 0 0 90z"/>
 </g>
</svg>
