<?xml version="1.0" encoding="iso-8859-1"?>
<!-- Generator: Adobe Illustrator 19.0.0, SVG Export Plug-In . SVG Version: 6.00 Build 0)  -->
<svg fill="#6C718B" xmlns="http://www.w3.org/2000/svg" xmlns:xlink="http://www.w3.org/1999/xlink" version="1.1" id="Layer_1" x="0px" y="0px" viewBox="0 0 505 505" style="enable-background:new 0 0 505 505;" xml:space="preserve" width="512" height="512">
<g>
	<path d="M497.5,215.409c-4.143,0-7.5,3.358-7.5,7.5v235.01c0,15.2-12.366,27.566-27.566,27.566H139.537c-4.143,0-7.5,3.358-7.5,7.5   s3.357,7.5,7.5,7.5h322.896c23.472,0,42.566-19.095,42.566-42.566v-235.01C505,218.767,501.643,215.409,497.5,215.409z"/>
	<path d="M469.934,131.378v-5.974c0-12.168-9.899-22.067-22.066-22.067h-20.712c-12.168,0-22.067,9.899-22.067,22.067v5.299h-11.715   V65.704c0-33.74-27.454-61.19-61.199-61.19H172.823c-33.746,0-61.2,27.45-61.2,61.19v64.999H99.912v-5.299   c0-12.168-9.899-22.067-22.066-22.067H57.134c-12.168,0-22.067,9.899-22.067,22.067v5.974C15.162,134.933,0,152.358,0,173.269   v284.65c0,23.471,19.096,42.566,42.566,42.566h66.969c4.143,0,7.5-3.358,7.5-7.5s-3.357-7.5-7.5-7.5H42.566   c-15.2,0-27.566-12.366-27.566-27.566v-284.65c0-15.2,12.366-27.566,27.566-27.566h419.867c15.2,0,27.566,12.366,27.566,27.566   v19.638c0,4.142,3.357,7.5,7.5,7.5s7.5-3.358,7.5-7.5v-19.638C505,152.358,489.838,134.933,469.934,131.378z M126.623,65.704   c0-25.469,20.726-46.19,46.2-46.19h159.351c25.475,0,46.199,20.721,46.199,46.19v64.999h-25V65.704   c0-11.684-9.51-21.19-21.199-21.19h-16.146H188.969h-16.146c-11.689,0-21.2,9.506-21.2,21.19v64.999h-25V65.704z M182.285,59.515   c3.445,15.732,17.48,27.546,34.23,27.546h71.966c16.75,0,30.785-11.815,34.229-27.546h9.463c3.418,0,6.199,2.777,6.199,6.19v64.999   h-171.75V65.704c0-3.413,2.781-6.19,6.2-6.19H182.285z M197.924,59.515h109.148c-2.976,7.349-10.188,12.546-18.591,12.546h-71.966   C208.112,72.061,200.899,66.864,197.924,59.515z M50.066,130.703v-5.299c0-3.897,3.171-7.067,7.067-7.067h20.712   c3.896,0,7.066,3.17,7.066,7.067v5.299H50.066z M420.088,130.703v-5.299c0-3.897,3.171-7.067,7.067-7.067h20.712   c3.896,0,7.066,3.17,7.066,7.067v5.299H420.088z"/>
	<path d="M264.895,406.434c1.322,1.011,2.927,1.541,4.555,1.541c0.658,0,1.319-0.086,1.968-0.263   c20.02-5.444,31.045-19.634,31.045-39.955c0-25.651-16.988-36.773-29.767-42.907c-2.324-1.116-5.058-0.96-7.24,0.413   c-2.182,1.373-3.506,3.77-3.506,6.348v68.864C261.949,402.812,263.038,405.016,264.895,406.434z M276.949,344.869   c7.428,5.909,10.513,12.959,10.513,22.889c0,9.81-3.456,16.893-10.513,21.434V344.869z"/>
	<path d="M251.578,223.934c0-2.237-0.999-4.358-2.724-5.782c-1.726-1.426-4-2.005-6.193-1.583   c-21.914,4.216-33.983,16.727-33.983,35.23c0,22.303,15.669,31.681,32.602,38.492c0.902,0.363,1.853,0.542,2.798,0.542   c1.477,0,2.941-0.435,4.199-1.285c2.064-1.395,3.302-3.723,3.302-6.215V223.934z M236.578,271.564   c-9.451-5.327-12.9-11.014-12.9-19.764c0-3.385-0.001-12.573,12.9-17.92V271.564z"/>
	<path d="M209.69,377.543c-5.71-4.855-11.104-9.441-18.068-9.441c-12.845,0-23.188,14.738-23.188,26.94   c0,11.055,8.089,22.674,22.193,31.878c12.625,8.239,28.728,13.563,45.951,15.27v11.513c0,11.13,9.056,20.185,20.186,20.185   s20.186-9.055,20.186-20.185v-13.637c37.99-8.541,59.617-35.951,59.617-76.059c0-45.369-28.049-64.031-59.617-76.541v-55.928   c7.258,1.693,12.511,4.311,16.956,6.526c4.872,2.428,9.079,4.524,14.016,4.524c14.492,0,22.508-15.929,22.508-26.94   c0-7.397-3.986-17.719-22.976-24.884c-8.396-3.168-19.228-5.478-30.504-6.555v-10.169c0-11.13-9.056-20.185-20.186-20.185   s-20.186,9.055-20.186,20.185v11.663c-16.133,3.028-29.937,9.251-40.211,18.173c-14.461,12.559-21.794,29.83-21.794,51.335   c0,21.369,7.349,37.902,22.466,50.545c11.199,9.365,25.004,15.242,39.539,20.57v66.613   C223.962,389.678,216.168,383.051,209.69,377.543z M246.601,313.998c-32.312-11.54-57.027-23.196-57.027-58.787   c0-42.165,34.755-52.976,55.471-55.668c3.737-0.486,6.534-3.669,6.534-7.438v-18.066c0-2.859,2.326-5.185,5.186-5.185   s5.186,2.326,5.186,5.185v17.149c0,4.003,3.144,7.301,7.143,7.491c25.117,1.199,46.337,8.969,46.337,16.968   c0,3.544-2.914,11.94-7.508,11.94c-1.406,0-4.281-1.433-7.326-2.95c-6.692-3.335-15.858-7.902-30.382-9.388   c-2.111-0.216-4.215,0.472-5.79,1.894c-1.575,1.422-2.474,3.445-2.474,5.567v69.904c0,3.127,1.94,5.927,4.869,7.023   c27.702,10.376,54.748,23.893,54.748,64.369c0,34.673-18.938,56.859-53.325,62.472c-3.628,0.592-6.292,3.726-6.292,7.402v19.822   c0,2.859-2.326,5.185-5.186,5.185s-5.186-2.326-5.186-5.185v-18.508c0-4.026-3.18-7.334-7.202-7.494   c-39.432-1.566-60.942-22.396-60.942-32.659c0-4.91,4.821-11.94,8.188-11.94c1.45,0,5.438,3.392,8.352,5.868   c8.354,7.103,20.979,17.838,43.245,20.406c2.126,0.245,4.253-0.429,5.85-1.852c1.597-1.423,2.51-3.46,2.51-5.599v-80.866   C251.578,317.891,249.586,315.064,246.601,313.998z"/>
</g>















</svg>
