<svg height="480pt" viewBox="-24 0 480 480" width="480pt" xmlns="http://www.w3.org/2000/svg"><path d="m384 232v-16c0-30.929688-25.070312-56-56-56s-56 25.070312-56 56v16c0 30.929688 25.070312 56 56 56s56-25.070312 56-56zm-56-56c19 .023438 35.371094 13.386719 39.199219 32h-34.253907l-5.746093-11.574219c-1.148438-2.304687-3.339844-3.910156-5.878907-4.320312-2.539062-.445313-5.136718.394531-6.9375 2.238281l-13.695312 13.65625h-11.886719c3.828125-18.613281 20.199219-31.976562 39.199219-32zm0 96c-22.082031-.027344-39.972656-17.917969-40-40v-8h16c2.121094 0 4.15625-.84375 5.65625-2.34375l8.152344-8.152344 3.03125 6.070313c1.355468 2.714843 4.128906 4.425781 7.160156 4.425781h40v8c-.027344 22.082031-17.917969 39.972656-40 40zm0 0"/><path d="m423.199219 337.710938c-14.789063-30.289063-45.492188-49.5625-79.199219-49.710938h-32c-48.574219.0625-87.9375 39.425781-88 88v88c0 8.835938 7.164062 16 16 16h176c8.835938 0 16-7.164062 16-16v-88c0-13.265625-3.007812-26.355469-8.800781-38.289062zm-79.199219-33.710938c6.148438.039062 12.265625.875 18.199219 2.488281l-34.199219 34.199219-34.199219-34.199219c5.933594-1.613281 12.050781-2.449219 18.199219-2.488281zm-104 72c-.027344-10.847656 2.433594-21.558594 7.199219-31.304688 6.628906-13.476562 17.289062-24.550781 30.503906-31.6875l42.296875 42.304688v108.6875h-80zm176 88h-80v-108.6875l42.304688-42.304688c13.210937 7.144532 23.867187 18.226563 30.496093 31.703126 4.761719 9.742187 7.226563 20.445312 7.199219 31.289062zm0 0"/><path d="m360 360h32v16h-32zm0 0"/><path d="m16 392v-352c0-13.253906 10.746094-24 24-24h256c13.253906 0 24 10.746094 24 24v104h16v-104c-.027344-22.082031-17.917969-39.9726562-40-40h-256c-22.082031.0273438-39.9726562 17.917969-40 40v352c.0273438 22.082031 17.917969 39.972656 40 40h168v-16h-168c-13.253906 0-24-10.746094-24-24zm0 0"/><path d="m288 128v-64c0-8.835938-7.164062-16-16-16h-208c-8.835938 0-16 7.164062-16 16v64c0 8.835938 7.164062 16 16 16h208c8.835938 0 16-7.164062 16-16zm-224 0v-64h208v64zm0 0"/><path d="m168 168c-17.671875 0-32 14.328125-32 32s14.328125 32 32 32 32-14.328125 32-32-14.328125-32-32-32zm0 48c-8.835938 0-16-7.164062-16-16s7.164062-16 16-16 16 7.164062 16 16-7.164062 16-16 16zm0 0"/><path d="m277.601562 176.398438c-10.554687-9.664063-26.242187-11.144532-38.421874-3.628907-12.175782 7.515625-17.882813 22.207031-13.972657 35.972657 3.90625 13.765624 16.480469 23.261718 30.792969 23.257812v-16c-7.152344 0-13.4375-4.75-15.390625-11.632812-1.953125-6.878907.898437-14.21875 6.984375-17.980469 6.085938-3.757813 13.925781-3.019531 19.207031 1.804687zm0 0"/><path d="m80 168c-17.671875 0-32 14.328125-32 32s14.328125 32 32 32 32-14.328125 32-32-14.328125-32-32-32zm0 48c-8.835938 0-16-7.164062-16-16s7.164062-16 16-16 16 7.164062 16 16-7.164062 16-16 16zm0 0"/><path d="m168 248c-17.671875 0-32 14.328125-32 32s14.328125 32 32 32 32-14.328125 32-32-14.328125-32-32-32zm0 48c-8.835938 0-16-7.164062-16-16s7.164062-16 16-16 16 7.164062 16 16-7.164062 16-16 16zm0 0"/><path d="m256 264c1.71875-.007812 3.425781.265625 5.054688.800781l5-15.199219c-14.378907-4.785156-30.144532 1.175782-37.761719 14.277344-7.621094 13.097656-5.003907 29.75 6.265625 39.882813l10.738281-11.882813c-4.914063-4.433594-6.59375-11.433594-4.21875-17.613281 2.371094-6.179687 8.304687-10.261719 14.921875-10.265625zm0 0"/><path d="m80 248c-17.671875 0-32 14.328125-32 32s14.328125 32 32 32 32-14.328125 32-32-14.328125-32-32-32zm0 48c-8.835938 0-16-7.164062-16-16s7.164062-16 16-16 16 7.164062 16 16-7.164062 16-16 16zm0 0"/><path d="m168 328c-17.671875 0-32 14.328125-32 32s14.328125 32 32 32 32-14.328125 32-32-14.328125-32-32-32zm0 48c-8.835938 0-16-7.164062-16-16s7.164062-16 16-16 16 7.164062 16 16-7.164062 16-16 16zm0 0"/><path d="m80 328c-17.671875 0-32 14.328125-32 32s14.328125 32 32 32 32-14.328125 32-32-14.328125-32-32-32zm0 48c-8.835938 0-16-7.164062-16-16s7.164062-16 16-16 16 7.164062 16 16-7.164062 16-16 16zm0 0"/><path d="m160 88h16v16h-16zm0 0"/><path d="m192 88h16v16h-16zm0 0"/><path d="m128 88h16v16h-16zm0 0"/></svg>