<svg height="682pt" viewBox="-114 -21 682 682.66669" width="682pt" xmlns="http://www.w3.org/2000/svg"><path d="m410.363281 0h-377.921875c-20.84375 0-37.796875 16.957031-37.796875 37.796875v33.277344c0 6.957031 5.640625 12.597656 12.597657 12.597656 6.957031 0 12.597656-5.640625 12.597656-12.597656v-33.277344c0-6.945313 5.65625-12.597656 12.601562-12.597656h377.921875c6.949219 0 12.601563 5.652343 12.601563 12.597656v564.40625c0 6.945313-5.652344 12.597656-12.601563 12.597656h-377.921875c-6.945312 0-12.601562-5.652343-12.601562-12.597656v-430.332031c0-6.957032-5.640625-12.605469-12.597656-12.605469-6.957032 0-12.597657 5.648437-12.597657 12.605469v430.332031c0 20.839844 16.953125 37.796875 37.796875 37.796875h377.921875c20.84375 0 37.796875-16.957031 37.796875-37.796875v-564.40625c0-20.839844-16.953125-37.796875-37.796875-37.796875zm0 0"/><path d="m383.71875 50.621094h-326.0625c-6.957031 0-12.597656 5.636718-12.597656 12.597656v159.484375c0 6.953125 5.640625 12.601563 12.597656 12.601563h326.066406c6.957032 0 12.597656-5.648438 12.597656-12.601563v-159.484375c0-6.960938-5.644531-12.597656-12.601562-12.597656zm-12.597656 159.480468h-300.859375v-134.28125h300.859375zm0 0"/><path d="m45.058594 342.351562c0 6.953126 5.640625 12.601563 12.597656 12.601563h74.109375c6.957031 0 12.597656-5.648437 12.597656-12.601563v-74.105468c0-6.957032-5.640625-12.597656-12.597656-12.597656h-74.109375c-6.957031 0-12.597656 5.640624-12.597656 12.597656zm25.203125-61.507812h48.90625v48.90625h-48.90625zm0 0"/><path d="m45.058594 457.519531c0 6.957031 5.640625 12.597657 12.597656 12.597657h74.109375c6.957031 0 12.597656-5.640626 12.597656-12.597657v-74.105469c0-6.953124-5.640625-12.597656-12.597656-12.597656h-74.109375c-6.957031 0-12.597656 5.644532-12.597656 12.597656zm25.203125-61.503906h48.90625v48.902344h-48.90625zm0 0"/><path d="m45.058594 572.6875c0 6.957031 5.640625 12.601562 12.597656 12.601562h74.109375c6.957031 0 12.597656-5.644531 12.597656-12.601562v-74.101562c0-6.960938-5.640625-12.605469-12.597656-12.605469h-74.109375c-6.957031 0-12.597656 5.644531-12.597656 12.605469zm25.203125-61.507812h48.90625v48.90625h-48.90625zm0 0"/><path d="m271.328125 268.246094c0-6.957032-5.636719-12.601563-12.601563-12.601563h-74.101562c-6.957031 0-12.601562 5.644531-12.601562 12.601563v74.101562c0 6.957032 5.644531 12.605469 12.601562 12.605469h74.101562c6.964844 0 12.601563-5.648437 12.601563-12.605469zm-25.199219 61.503906h-48.90625v-48.90625h48.90625zm0 0"/><path d="m271.328125 383.414062c0-6.953124-5.636719-12.597656-12.601563-12.597656h-74.101562c-6.957031 0-12.601562 5.644532-12.601562 12.597656v74.105469c0 6.957031 5.644531 12.597657 12.601562 12.597657h74.101562c6.964844 0 12.601563-5.640626 12.601563-12.597657zm-25.199219 61.503907h-48.90625v-48.902344h48.90625zm0 0"/><path d="m258.726562 485.980469h-74.101562c-6.957031 0-12.601562 5.644531-12.601562 12.605469v74.101562c0 6.957031 5.644531 12.601562 12.601562 12.601562h74.101562c6.964844 0 12.601563-5.644531 12.601563-12.601562v-74.101562c0-6.960938-5.636719-12.605469-12.601563-12.605469zm-12.597656 74.105469h-48.90625v-48.90625h48.90625zm0 0"/><path d="m387.746094 255.644531h-74.105469c-6.960937 0-12.597656 5.644531-12.597656 12.601563v74.101562c0 6.957032 5.636719 12.605469 12.597656 12.605469h74.105469c6.957031 0 12.597656-5.648437 12.597656-12.605469v-74.101562c0-6.957032-5.640625-12.601563-12.597656-12.601563zm-12.601563 74.105469h-48.90625v-48.90625h48.90625zm0 0"/><path d="m387.746094 469.84375c6.957031 0 12.597656-5.644531 12.597656-12.601562v-73.828126c0-6.960937-5.640625-12.597656-12.597656-12.597656h-74.105469c-6.960937 0-12.597656 5.636719-12.597656 12.597656v189.273438c0 6.957031 5.636719 12.601562 12.597656 12.601562h74.105469c6.957031 0 12.597656-5.644531 12.597656-12.601562v-18.640625c0-6.957031-5.640625-12.597656-12.597656-12.597656-6.957032 0-12.601563 5.640625-12.601563 12.597656v6.039063h-48.90625v-164.070313h48.90625v61.230469c0 6.957031 5.644531 12.597656 12.601563 12.597656zm0 0"/><path d="m310.9375 134.175781v39.332031c0 3.757813 1.992188 6.996094 5.460938 8.878907 2.371093 1.292969 5.132812 1.949219 8.199218 1.949219s5.824219-.65625 8.195313-1.949219c3.472656-1.882813 5.460937-5.121094 5.460937-8.878907v-59.992187c0-3.476563-1.734375-6.523437-4.894531-8.585937-2.386719-1.550782-5.046875-2.335938-7.914063-2.335938-2.308593 0-4.339843.535156-6.042968 1.601562l-12.332032 7.46875c-3.769531 2.210938-5.847656 5.917969-5.847656 10.4375 0 2.839844.882813 5.535157 2.546875 7.785157 1.816407 2.464843 4.328125 3.960937 7.167969 4.289062zm0 0"/><path d="m6.757812 134.296875c.953126 0 1.925782-.109375 2.890626-.335937l.949218-.226563c6.773438-1.589844 10.976563-8.375 9.382813-15.144531-1.589844-6.773438-8.367188-10.976563-15.140625-9.386719l-.953125.226563c-6.769531 1.589843-10.976563 8.367187-9.382813 15.140624 1.363282 5.804688 6.539063 9.726563 12.253906 9.726563zm0 0"/><path d="m400.484375 502.652344c-1.589844-6.777344-8.375-10.976563-15.144531-9.390625l-.949219.222656c-6.773437 1.59375-10.976563 8.375-9.390625 15.148437 1.367188 5.804688 6.539062 9.722657 12.257812 9.722657.957032 0 1.921876-.109375 2.890626-.339844l.953124-.222656c6.769532-1.585938 10.976563-8.371094 9.382813-15.140625zm0 0"/></svg>