<?xml version="1.0" encoding="UTF-8"?>
<!DOCTYPE svg PUBLIC "-//W3C//DTD SVG 1.1//EN" "http://www.w3.org/Graphics/SVG/1.1/DTD/svg11.dtd">
<!-- Creator: CorelDRAW X8 -->
<svg xmlns="http://www.w3.org/2000/svg" xml:space="preserve" width="25.9981mm" height="28.8022mm" version="1.1" style="shape-rendering:geometricPrecision; text-rendering:geometricPrecision; image-rendering:optimizeQuality; fill-rule:evenodd; clip-rule:evenodd"
viewBox="0 0 1749 1938"
 xmlns:xlink="http://www.w3.org/1999/xlink">
 <defs>
  <style type="text/css">
   <![CDATA[
    .fil0 {fill:black;fill-rule:nonzero}
   ]]>
  </style>
 </defs>
 <g id="Слой_x0020_1">
  <metadata id="CorelCorpID_0Corel-Layer"/>
  <path class="fil0" d="M1501 364c-160,-160 -374,-249 -600,-249 -43,0 -87,4 -129,10 -17,-72 -81,-125 -158,-125l-79 0c-295,0 -535,240 -535,535l0 637c0,15 13,28 28,28 16,0 29,-13 29,-28l0 -637c0,-244 183,-446 419,-475l0 53c0,16 13,29 28,29 16,0 29,-13 29,-29l0 -56c0,0 1,0 2,0l79 0c56,0 102,44 105,99 0,2 0,4 1,6l0 240c0,58 -48,106 -106,106l-81 0 0 -263c0,-16 -13,-29 -29,-29 -15,0 -28,13 -28,29l0 275c-52,22 -88,73 -88,133l0 622c0,60 36,112 88,134l0 459c-236,-29 -419,-231 -419,-474l0 -89c0,-16 -13,-28 -29,-28 -15,0 -28,12 -28,28l0 89c0,295 240,535 535,535l79 0c89,0 162,-73 162,-163l0 -240c0,-89 -73,-162 -162,-162l-81 0c-49,0 -89,-40 -89,-89l0 -622c0,-49 40,-88 89,-88l81 0c89,0 162,-73 162,-163l0 -220c41,-7 83,-10 125,-10 436,0 792,355 792,792 0,209 -81,406 -226,554 -130,133 -298,214 -480,234l120 -133c11,-12 10,-30 -2,-41 -12,-10 -30,-9 -40,2l-167 185 0 0 0 0c0,0 0,0 0,0 0,0 0,1 0,1 -1,0 -1,0 -1,0 0,0 0,0 0,0 0,0 0,0 0,1 0,0 0,0 -1,0 0,0 0,0 0,0 -3,4 -5,10 -5,15 0,0 0,0 0,0 0,1 0,1 0,1 0,0 0,0 0,0l0 1c0,0 0,0 0,0l0 1c0,0 0,0 0,0 0,0 0,0 0,1 0,0 0,0 0,0 0,0 0,0 0,0 0,7 3,12 6,17 1,0 1,0 1,0l0 0c0,0 0,0 0,0l0 1c1,0 1,0 1,0 0,0 0,0 0,0 0,0 0,0 0,1 0,0 0,0 0,0 1,0 1,0 1,0l0 1c0,0 0,0 0,0 1,0 1,0 1,0 0,0 0,0 0,0 0,0 0,0 0,0 0,1 1,1 1,1l0 0c0,0 0,0 0,0 1,1 2,1 3,2l215 125c4,3 9,4 14,4 10,0 19,-5 25,-14 8,-14 3,-31 -10,-39l-137 -79c188,-25 361,-111 495,-248 156,-159 242,-370 242,-594 0,-227 -88,-440 -248,-600zm-968 1057l81 0c58,0 106,47 106,105l0 240c0,58 -48,106 -106,106l-81 0 0 -451z"/>
 </g>
</svg>
