<?xml version="1.0" encoding="iso-8859-1"?>
<!-- Generator: Adobe Illustrator 19.0.0, SVG Export Plug-In . SVG Version: 6.00 Build 0)  -->
<svg version="1.1" id="Capa_1" xmlns="http://www.w3.org/2000/svg" xmlns:xlink="http://www.w3.org/1999/xlink" x="0px" y="0px"
	 viewBox="0 0 496 496" style="enable-background:new 0 0 496 496;" xml:space="preserve">
<g>
	<g>
		<g>
			<path d="M104,344h32c4.416,0,8,3.592,8,8h16c0-13.232-10.768-24-24-24h-8v-8h-16v8h-8c-13.232,0-24,10.768-24,24v8
				c0,13.232,10.768,24,24,24h32c4.416,0,8,3.592,8,8v8c0,4.416-3.584,8-8,8h-32c-4.416,0-8-3.592-8-8H80c0,13.232,10.768,24,24,24
				h8v8h16v-8h8c13.232,0,24-10.768,24-24v-8c0-13.232-10.768-24-24-24h-32c-4.416,0-8-3.592-8-8v-8C96,347.592,99.584,344,104,344z
				"/>
			<path d="M120,256C53.832,256,0,309.832,0,376s53.832,120,120,120s120-53.832,120-120S186.168,256,120,256z M120,480
				c-57.344,0-104-46.656-104-104s46.656-104,104-104s104,46.656,104,104S177.344,480,120,480z"/>
			<path d="M480,432v-32h16v-48h-32v-16h16v-48H240v48h16v16v8v40h8h8v16h-24v16h24v16h-16h-24v16h24v32h240v-48h-48v-16H480z
				 M464,464h16v16h-16V464z M464,416h-16v-16h16V416z M480,368v16h-16v-16H480z M448,304h16v16h-16V304z M448,352h-16v-16h16V352z
				 M416,304h16v16h-16V304z M416,400h16v16h-16V400z M400,384v-16h16v16H400z M416,352h-16v-16h16V352z M384,304h16v16h-16V304z
				 M384,400h16v16h-16V400z M368,384v-16h16v16H368z M384,352h-16v-16h16V352z M352,304h16v16h-16V304z M352,400h16v16h-16V400z
				 M336,384v-16h16v16H336z M352,352h-16v-16h16V352z M320,304h16v16h-16V304z M320,400h16v16h-16V400z M304,384v-16h16v16H304z
				 M320,352h-16v-16h16V352z M288,304h16v16h-16V304z M288,400h16v16h-16V400z M272,384v-16h16v16H272z M288,352h-16v-16h16V352z
				 M256,320v-16h16v16H256z M288,480h-16v-16h16V480z M288,432h16v16h-16V432z M320,480h-16v-16h16V480z M320,432h16v16h-16V432z
				 M352,480h-16v-16h16V480z M352,432h16v16h-16V432z M384,480h-16v-16h16V480z M384,432h16v16h-16V432z M416,480h-16v-16h16V480z
				 M416,432h16v16h-16V432z M448,480h-16v-16h16V480z M432,384v-16h16v16H432z"/>
			<path d="M120,304c16.56,0,32.744,5.776,45.544,16.256l10.144-12.384C160.024,295.056,140.248,288,120,288
				c-48.52,0-88,39.48-88,88c0,20.248,7.064,40.024,19.88,55.688l12.376-10.136C53.776,408.744,48,392.56,48,376
				C48,336.304,80.296,304,120,304z"/>
			<path d="M188.12,320.312l-12.376,10.136C186.224,343.256,192,359.44,192,376c0,39.696-32.296,72-72,72
				c-16.56,0-32.744-5.776-45.544-16.256l-10.144,12.384C79.976,456.944,99.752,464,120,464c48.52,0,88-39.48,88-88
				C208,355.752,200.936,335.976,188.12,320.312z"/>
			<path d="M224,221.344V272h16v-48.408c2.656,0.192,5.296,0.408,8,0.408s5.344-0.216,8-0.408V272h16v-50.656
				c50.256-11.024,88-55.832,88-109.344C360,50.24,309.76,0,248,0S136,50.24,136,112C136,165.512,173.744,210.32,224,221.344z
				 M248,16c52.936,0,96,43.064,96,96c0,52.936-43.064,96-96,96c-52.936,0-96-43.064-96-96C152,59.064,195.064,16,248,16z"/>
			<path d="M248,192c44.112,0,80-35.888,80-80s-35.888-80-80-80s-80,35.888-80,80S203.888,192,248,192z M312,112
				c0,35.288-28.712,64-64,64c-14.768,0-28.336-5.072-39.184-13.504l89.672-89.672C306.928,83.664,312,97.232,312,112z M248,48
				c14.768,0,28.336,5.072,39.184,13.504l-89.68,89.68C189.072,140.336,184,126.768,184,112C184,76.712,212.712,48,248,48z"/>
		</g>
	</g>
</g>
<g>
</g>
<g>
</g>
<g>
</g>
<g>
</g>
<g>
</g>
<g>
</g>
<g>
</g>
<g>
</g>
<g>
</g>
<g>
</g>
<g>
</g>
<g>
</g>
<g>
</g>
<g>
</g>
<g>
</g>
</svg>
