<?xml version="1.0" encoding="iso-8859-1"?>
<!-- Generator: Adobe Illustrator 19.0.0, SVG Export Plug-In . SVG Version: 6.00 Build 0)  -->
<svg version="1.1" id="Capa_1" xmlns="http://www.w3.org/2000/svg" xmlns:xlink="http://www.w3.org/1999/xlink" x="0px" y="0px"
	 viewBox="0 0 511.999 511.999" style="enable-background:new 0 0 511.999 511.999;" xml:space="preserve">
<g>
	<g>
		<path d="M341.069,184.883c-1.859-1.86-4.439-2.93-7.069-2.93s-5.21,1.069-7.07,2.93c-1.86,1.861-2.93,4.44-2.93,7.07
			s1.069,5.21,2.93,7.069c1.86,1.86,4.44,2.931,7.07,2.931s5.21-1.071,7.069-2.931c1.86-1.859,2.931-4.439,2.931-7.069
			S342.93,186.743,341.069,184.883z"/>
	</g>
</g>
<g>
	<g>
		<path d="M310.161,331.185c-14.332,0-25.992-10.167-25.992-22.664s11.66-22.665,25.992-22.665
			c14.332,0,25.991,10.168,25.991,22.665c0,5.522,4.478,10,10,10c5.522,0,10-4.478,10-10c0-20.339-15.426-37.389-35.991-41.637
			v-1.003c0-5.522-4.478-10-10-10c-5.522,0-10,4.478-10,10v1.003c-20.566,4.248-35.992,21.298-35.992,41.637
			c0,23.525,20.632,42.664,45.992,42.664c14.332,0,25.991,10.168,25.991,22.665s-11.659,22.665-25.991,22.665
			c-14.332,0-25.992-10.167-25.992-22.664c0-5.522-4.478-10-10-10c-5.522,0-10,4.478-10,10c0,20.339,15.426,37.388,35.992,41.636
			v2.535c0,5.522,4.478,10,10,10c5.522,0,10-4.478,10-10v-2.536c20.565-4.248,35.991-21.297,35.991-41.636
			C356.152,350.325,335.52,331.185,310.161,331.185z"/>
	</g>
</g>
<g>
	<g>
		<path d="M445.395,192.172l-59.166-73.971l29.64-58.183c6.504-12.767,3.987-27.386-6.411-37.242
			c-10.399-9.857-25.132-11.587-37.534-4.41c-4.13,2.392-9.392,1.975-13.081-1.025c-28.26-23.041-69.307-23.072-97.674-0.01
			c-3.703,3.011-8.964,3.427-13.094,1.034c-12.401-7.177-27.134-5.447-37.533,4.411c-10.398,9.856-12.915,24.476-6.411,37.242
			l29.739,58.376l-34.461,43.084c-3.449,4.313-2.75,10.605,1.563,14.056c4.314,3.45,10.605,2.749,14.056-1.563l35.526-44.416H324
			v28.063c0,5.522,4.478,10,10,10c5.522,0,10-4.478,10-10v-28.063h15.25v99.896c0,5.522,4.478,10,10,10c5.522,0,10-4.478,10-10
			v-87.957l50.525,63.169C469.901,254.831,492,317.839,492,382.079c0,60.584-49.289,109.873-109.873,109.873h-144
			c-36.208,0-69.23-17.275-89.827-46.583c36.74-19.392,60.817-39.071,74.867-60.998c15.347-23.952,17.095-47.669,17.697-73.966
			c0.002-0.077,0.003-0.153,0.003-0.229v-83.091c0-3.905-2.273-7.453-5.821-9.085l-110.434-50.8c-2.652-1.221-5.705-1.221-8.357,0
			L5.821,218C2.273,219.632,0,223.18,0,227.085v83.091c0,0.076,0.001,0.152,0.003,0.229c0.603,26.297,2.351,50.014,17.697,73.966
			c16.871,26.33,48.184,49.419,98.543,72.661c1.329,0.613,2.76,0.92,4.19,0.92s2.861-0.307,4.19-0.92
			c1.907-0.88,3.777-1.76,5.629-2.64c11.066,16.47,25.829,30.308,43.034,40.239c19.63,11.331,42.052,17.32,64.84,17.32h144
			c71.612,0,129.873-58.261,129.873-129.873C512,313.316,488.346,245.871,445.395,192.172z M368.19,109.555H251.812l-29.86-58.615
			c-3.641-7.147,0.877-12.253,2.349-13.648c1.472-1.396,6.819-5.631,13.754-1.617c11.27,6.523,25.627,5.389,35.806-2.887
			c20.974-17.048,51.397-17.026,72.355,0.063c10.104,8.212,24.461,9.348,35.729,2.825c6.939-4.02,12.283,0.22,13.755,1.616
			c1.472,1.395,5.99,6.501,2.35,13.648L368.19,109.555z M120.434,436.917C21.931,390.446,20.987,353.144,20,310.063v-76.57
			l100.434-46.2l100.434,46.2v76.57C219.88,353.144,218.937,390.446,120.434,436.917z"/>
	</g>
</g>
<g>
	<g>
		<path d="M184.283,278.815c-3.905-3.904-10.235-3.904-14.141,0l-56.039,56.039L90.38,311.131c-3.906-3.904-10.236-3.904-14.143,0
			c-3.905,3.905-3.905,10.237,0,14.143l30.794,30.794c1.953,1.952,4.512,2.929,7.071,2.929c2.559,0,5.118-0.977,7.071-2.929
			l63.11-63.11C188.188,289.053,188.188,282.721,184.283,278.815z"/>
	</g>
</g>
<g>
</g>
<g>
</g>
<g>
</g>
<g>
</g>
<g>
</g>
<g>
</g>
<g>
</g>
<g>
</g>
<g>
</g>
<g>
</g>
<g>
</g>
<g>
</g>
<g>
</g>
<g>
</g>
<g>
</g>
</svg>
