<?xml version="1.0"?>
<svg xmlns="http://www.w3.org/2000/svg" height="512px" viewBox="0 -1 512 511" width="512px" class=""><g><path d="m494.5625 452.183594h-26.242188v-24.421875c0-4.210938-3.417968-7.632813-7.632812-7.632813-4.222656 0-7.632812 3.421875-7.632812 7.632813v24.421875h-51.332032v-97.863282c0-1.667968 1.351563-3.03125 3.03125-3.03125h45.257813c1.679687 0 3.042969 1.363282 3.042969 3.03125v42.90625c0 4.222657 3.410156 7.632813 7.632812 7.632813 4.214844 0 7.632812-3.410156 7.632812-7.632813v-42.90625c0-10.085937-8.210937-18.300781-18.308593-18.300781h-45.257813c-10.097656 0-18.300781 8.214844-18.300781 18.300781v97.863282h-20.9375v-149.773438c0-10.089844-8.214844-18.300781-18.3125-18.300781h-45.253906c-10.097657 0-18.304688 8.210937-18.304688 18.300781v149.773438h-20.9375v-14.242188c0-4.214844-3.417969-7.632812-7.632812-7.632812-4.226563 0-7.632813 3.417968-7.632813 7.632812v14.242188h-51.335937v-204.742188c0-1.667968 1.355469-3.03125 3.035156-3.03125h45.253906c1.679688 0 3.046875 1.363282 3.046875 3.03125v159.964844c0 4.222656 3.40625 7.632812 7.632813 7.632812 4.214843 0 7.632812-3.410156 7.632812-7.632812v-159.964844c0-10.085937-8.214843-18.300781-18.3125-18.300781h-45.253906c-10.097656 0-18.300781 8.214844-18.300781 18.300781v204.742188h-20.9375v-241.382813c0-10.089843-8.214844-18.304687-18.3125-18.304687h-45.257813c-10.097656 0-18.300781 8.214844-18.300781 18.304687v62.242188c0 4.222656 3.410156 7.632812 7.632812 7.632812 4.214844 0 7.636719-3.410156 7.636719-7.632812v-62.242188c0-1.671875 1.351563-3.035156 3.03125-3.035156h45.257813c1.679687 0 3.042968 1.363281 3.042968 3.035156v241.382813h-51.332031v-148.601563c0-4.214843-3.421875-7.636719-7.636719-7.636719-4.222656 0-7.632812 3.421876-7.632812 7.636719v148.601563h-21.273438v-433.226563c0-9.621093-7.816406-17.4375-17.4375-17.4375h-21.882812c-9.621094 0-17.4375 7.816407-17.4375 17.4375v461.605469c0 15.644531 12.734375 28.378906 28.378906 28.378906h466.183594c9.621094 0 17.4375-7.820312 17.4375-17.4375v-21.886718c0-9.617188-7.816406-17.433594-17.4375-17.433594zm-195.648438-149.773438c0-1.671875 1.355469-3.035156 3.035157-3.035156h45.253906c1.679687 0 3.042969 1.363281 3.042969 3.035156v149.773438h-51.332032zm197.816407 189.09375c0 1.191406-.976563 2.167969-2.167969 2.167969h-466.183594c-7.226562 0-13.109375-5.882813-13.109375-13.109375v-461.605469c0-1.191406.976563-2.167969 2.167969-2.167969h21.882812c1.191407 0 2.167969.976563 2.167969 2.167969v440.859375c0 4.214844 3.421875 7.632813 7.636719 7.632813h445.4375c1.191406 0 2.167969.980469 2.167969 2.167969zm0 0" data-original="#000000" class="active-path" data-old_color="#6c718b" fill="#6c718b"/><path d="m398.578125 125.640625h-19.035156c-12.988281 0-24.105469 9.925781-25.304688 22.589844-1.375 14.710937 10.246094 27.351562 24.855469 27.351562h77.695312c13.792969 0 25.019532-11.230469 25.019532-25.023437v-77.683594c0-14.601562-12.648438-26.25-27.351563-24.855469-12.671875 1.1875-22.585937 12.304688-22.585937 25.292969v20.9375l-87.894532-87.894531c-7.816406-7.808594-20.53125-7.808594-28.347656 0l-4 4c-7.808594 7.816406-7.808594 20.53125 0 28.339843zm-76.152344-104.484375 4.003907-4c1.820312-1.832031 4.914062-1.832031 6.746093 0l100.84375 100.839844c4.828125 4.832031 13.121094 1.394531 13.121094-5.433594v-39.25c0-8.726562 9.902344-13.375 16.203125-7.605469 2.027344 1.84375 3.195312 4.460938 3.195312 7.167969v77.683594c0 5.375-4.375 9.753906-9.75 9.753906h-77.695312c-2.707031 0-5.3125-1.160156-7.164062-3.195312-5.742188-6.304688-1.136719-16.207032 7.613281-16.207032h37.34375c6.835937 0 10.265625-8.300781 5.4375-13.109375l-99.898438-99.898437c-1.832031-1.832032-1.832031-4.925782 0-6.746094zm0 0" data-original="#000000" class="active-path" data-old_color="#6c718b" fill="#6c718b"/><path d="m117.738281 152.1875c-8.9375 0-12.964843-3.957031-15.917969-6.847656-1.648437-1.621094-3.074218-3.023438-4.925781-3.023438-3.257812 0-6.039062 3.917969-6.039062 7.132813 0 5.234375 7.503906 12.460937 19.789062 14.648437v11.09375c0 4.214844 3.417969 7.632813 7.632813 7.632813 4.21875 0 7.636718-3.417969 7.636718-7.632813v-11.152344c13.007813-2.585937 20.550782-12.054687 20.550782-26.417968 0-34.007813-40.117188-24.246094-40.117188-43.042969 0-9.222656 8.1875-11.15625 15.054688-11.15625 6.636718 0 10.25 1.859375 12.886718 3.226563 1.527344.78125 2.738282 1.414062 4.0625 1.414062 3.941407 0 5.914063-4.582031 5.914063-7.144531 0-5.875-9.933594-8.632813-18.351563-9.367188v-13.460937c0-4.214844-3.417968-7.632813-7.636718-7.632813-4.214844 0-7.632813 3.417969-7.632813 7.632813 0 .601562-.007812 13.972656.015625 14.570312-11.84375 3.382813-17.613281 11.582032-17.613281 22.894532 0 30.765624 40.125 20.074218 40.125 43.046874 0 11.828126-9.671875 13.585938-15.433594 13.585938zm0 0" data-original="#000000" class="active-path" data-old_color="#6c718b" fill="#6c718b"/><path d="m220.546875 188.832031c-8.9375 0-12.96875-3.957031-15.917969-6.847656-1.652344-1.621094-3.074218-3.023437-4.929687-3.023437-3.257813 0-6.035157 3.917968-6.035157 7.132812 0 5.234375 7.503907 12.460938 19.789063 14.648438v11.09375c0 4.214843 3.417969 7.632812 7.632813 7.632812 4.214843 0 7.632812-3.417969 7.632812-7.632812v-11.15625c13.011719-2.582032 20.554688-12.050782 20.554688-26.414063 0-19.59375-13.632813-24.835937-24.582032-29.039063-8.683594-3.339843-15.535156-5.964843-15.535156-14.007812 0-9.21875 8.183594-11.15625 15.054688-11.15625 6.636718 0 10.25 1.863281 12.886718 3.226562 1.527344.785157 2.738282 1.417969 4.0625 1.417969 3.9375 0 5.914063-4.582031 5.914063-7.148437 0-5.871094-9.9375-8.628906-18.355469-9.363282v-13.460937c0-4.214844-3.417969-7.632813-7.632812-7.632813-4.214844 0-7.632813 3.417969-7.632813 7.632813 0 .601563-.007813 13.972656.011719 14.570313-11.84375 3.382812-17.613282 11.578124-17.613282 22.894531 0 30.765625 40.125 20.074219 40.125 43.046875 0 11.824218-9.667968 13.585937-15.429687 13.585937zm0 0" data-original="#000000" class="active-path" data-old_color="#6c718b" fill="#6c718b"/><path d="m323.355469 243.800781c-8.9375 0-12.96875-3.960937-15.921875-6.851562-1.648438-1.617188-3.074219-3.023438-4.925782-3.023438-3.257812 0-6.035156 3.917969-6.035156 7.136719 0 5.230469 7.5 12.457031 19.785156 14.644531v11.09375c0 4.214844 3.417969 7.632813 7.636719 7.632813 4.214844 0 7.632813-3.417969 7.632813-7.632813v-11.152343c13.007812-2.585938 20.550781-12.054688 20.550781-26.414063 0-34.011719-40.113281-24.25-40.113281-43.046875 0-9.222656 8.183594-11.15625 15.054687-11.15625 6.636719 0 10.25 1.863281 12.886719 3.226562 1.527344.78125 2.738281 1.414063 4.058594 1.414063 3.941406 0 5.914062-4.582031 5.914062-7.144531 0-5.875-9.933594-8.632813-18.351562-9.367188v-13.460937c0-4.214844-3.417969-7.632813-7.632813-7.632813-4.21875 0-7.636719 3.417969-7.636719 7.632813 0 .601562-.007812 13.972656.015626 14.570312-11.84375 3.382813-17.613282 11.582031-17.613282 22.894531 0 30.765626 40.125 20.074219 40.125 43.046876 0 11.828124-9.671875 13.589843-15.429687 13.589843zm0 0" data-original="#000000" class="active-path" data-old_color="#6c718b" fill="#6c718b"/><path d="m426.699219 326.347656c4.21875 0 7.636719-3.417968 7.636719-7.632812v-11.15625c13.007812-2.585938 20.550781-12.050782 20.550781-26.414063 0-34.011719-40.117188-24.246093-40.117188-43.046875 0-9.222656 8.183594-11.15625 15.054688-11.15625 6.636719 0 10.25 1.863282 12.886719 3.226563 1.527343.785156 2.738281 1.417969 4.0625 1.417969 3.9375 0 5.914062-4.582032 5.914062-7.148438 0-5.871094-9.933594-8.628906-18.351562-9.363281v-13.460938c0-4.21875-3.417969-7.636719-7.636719-7.636719-4.214844 0-7.632813 3.417969-7.632813 7.636719 0 .601563-.007812 13.972657.015625 14.570313-11.84375 3.382812-17.613281 11.578125-17.613281 22.894531 0 30.765625 40.125 20.074219 40.125 43.042969 0 11.828125-9.671875 13.589844-15.433594 13.589844-8.9375 0-12.96875-3.957032-15.917968-6.847657-1.648438-1.621093-3.074219-3.023437-4.925782-3.023437-3.257812 0-6.039062 3.917968-6.039062 7.132812 0 5.234375 7.503906 12.460938 19.789062 14.648438v11.09375c0 4.214844 3.417969 7.632812 7.632813 7.632812zm0 0" data-original="#000000" class="active-path" data-old_color="#6c718b" fill="#6c718b"/></g> </svg>
