<?xml version="1.0" encoding="iso-8859-1"?>
<!-- Generator: Adobe Illustrator 19.0.0, SVG Export Plug-In . SVG Version: 6.00 Build 0)  -->
<svg version="1.1" id="Capa_1" xmlns="http://www.w3.org/2000/svg" xmlns:xlink="http://www.w3.org/1999/xlink" x="0px" y="0px"
	 viewBox="0 0 512.002 512.002" style="enable-background:new 0 0 512.002 512.002;" xml:space="preserve">
<g>
	<g>
		<path d="M216.969,129.68H101.561c-5.523,0-10,4.477-10,10s4.477,10,10,10h115.408c5.523,0,10-4.477,10-10
			S222.492,129.68,216.969,129.68z"/>
	</g>
</g>
<g>
	<g>
		<path d="M247.402,169.68H101.561c-5.523,0-10,4.477-10,10s4.477,10,10,10h145.841c5.523,0,10-4.477,10-10
			S252.925,169.68,247.402,169.68z"/>
	</g>
</g>
<g>
	<g>
		<path d="M172.558,209.68h-0.475c-5.523,0-10,4.477-10,10s4.477,10,10,10h0.475c5.523,0,10-4.477,10-10
			S178.081,209.68,172.558,209.68z"/>
	</g>
</g>
<g>
	<g>
		<path d="M142.999,209.68h-41.438c-5.523,0-10,4.477-10,10s4.477,10,10,10h41.438c5.523,0,10-4.477,10-10
			S148.522,209.68,142.999,209.68z"/>
	</g>
</g>
<g>
	<g>
		<path d="M318.44,79.681h-41.438c-5.523,0-10,4.477-10,10c0,5.523,4.477,10,10,10h41.438c5.523,0,10-4.477,10-10
			C328.44,84.158,323.963,79.681,318.44,79.681z"/>
	</g>
</g>
<g>
	<g>
		<path d="M247.917,79.681h-0.475c-5.523,0-10,4.477-10,10c0,5.523,4.477,10,10,10h0.475c5.523,0,10-4.477,10-10
			C257.917,84.158,253.44,79.681,247.917,79.681z"/>
	</g>
</g>
<g>
	<g>
		<path d="M420.001,293.476v-103.45c0-0.037-0.008-0.072-0.008-0.109c-0.005-0.431-0.036-0.86-0.095-1.287
			c-0.012-0.082-0.029-0.162-0.043-0.244c-0.061-0.37-0.144-0.737-0.247-1.099c-0.022-0.078-0.041-0.156-0.064-0.232
			c-0.128-0.413-0.283-0.817-0.465-1.213c-0.027-0.058-0.058-0.113-0.085-0.171c-0.166-0.342-0.353-0.675-0.559-0.999
			c-0.046-0.072-0.089-0.145-0.136-0.215c-0.239-0.355-0.498-0.7-0.786-1.028c-0.043-0.049-0.092-0.093-0.137-0.142
			c-0.169-0.186-0.338-0.371-0.524-0.546l-40.54-38.125V68.681c0-16.542-13.458-30-30-30h-82.643l-32.22-30.302
			C219.58-2.782,200.338-2.783,188.554,8.377l-31.992,30.304H73.688c-16.542,0-30,13.458-30,30v76.824L3.235,182.662
			c-0.588,0.54-1.087,1.139-1.515,1.772c-0.051,0.076-0.1,0.152-0.149,0.23c-0.222,0.349-0.425,0.705-0.6,1.073
			c-0.011,0.023-0.023,0.044-0.034,0.066c-0.185,0.397-0.337,0.805-0.467,1.219c-0.028,0.089-0.053,0.18-0.078,0.27
			c-0.107,0.377-0.195,0.759-0.257,1.145c-0.008,0.052-0.021,0.102-0.028,0.153c-0.062,0.429-0.09,0.861-0.096,1.294
			C0.01,189.932,0,189.978,0,190.026v219.995c0,0.006,0,0.011,0,0.016c0.006,16.537,13.461,29.989,30,29.989h268.783
			c15.513,41.968,55.927,71.968,103.219,71.968c60.654,0,110-49.346,110-109.999C512.002,347.47,472.123,302.092,420.001,293.476z
			 M376.311,172.071l19.093,17.955l-19.093,17.956V172.071z M400.001,213.159v78.855c-0.138,0.003-0.275,0.01-0.413,0.013
			c-0.47,0.009-0.939,0.026-1.407,0.042c-0.464,0.016-0.929,0.031-1.392,0.053c-0.474,0.023-0.946,0.051-1.419,0.079
			c-0.453,0.027-0.907,0.054-1.358,0.087c-0.48,0.035-0.958,0.076-1.436,0.116c-0.442,0.038-0.883,0.075-1.324,0.118
			c-0.482,0.047-0.961,0.1-1.442,0.153c-0.435,0.048-0.87,0.096-1.303,0.149c-0.482,0.059-0.961,0.124-1.441,0.189
			c-0.426,0.059-0.853,0.116-1.278,0.18c-0.485,0.072-0.969,0.149-1.452,0.228c-0.415,0.067-0.831,0.135-1.245,0.207
			c-0.488,0.085-0.974,0.175-1.46,0.267c-0.406,0.077-0.812,0.153-1.216,0.234c-0.49,0.098-0.977,0.201-1.465,0.305
			c-0.397,0.085-0.794,0.17-1.189,0.26c-0.489,0.11-0.977,0.226-1.464,0.343c-0.39,0.094-0.779,0.188-1.167,0.286
			c-0.489,0.123-0.975,0.251-1.461,0.381c-0.382,0.102-0.765,0.205-1.145,0.31c-0.489,0.136-0.975,0.277-1.461,0.419
			c-0.373,0.109-0.746,0.22-1.117,0.333c-0.488,0.149-0.975,0.303-1.461,0.458c-0.366,0.117-0.731,0.235-1.095,0.356
			c-0.486,0.161-0.969,0.327-1.452,0.495c-0.36,0.125-0.719,0.251-1.077,0.38c-0.483,0.173-0.963,0.351-1.442,0.531
			c-0.353,0.133-0.706,0.266-1.057,0.402c-0.48,0.187-0.959,0.377-1.437,0.57c-0.344,0.139-0.687,0.279-1.029,0.421
			c-0.479,0.2-0.957,0.403-1.433,0.609c-0.337,0.146-0.673,0.293-1.008,0.442c-0.475,0.211-0.948,0.426-1.419,0.644
			c-0.332,0.153-0.662,0.308-0.992,0.464c-0.471,0.223-0.939,0.45-1.407,0.679c-0.325,0.16-0.648,0.321-0.972,0.483
			c-0.465,0.235-0.929,0.473-1.391,0.714c-0.32,0.167-0.639,0.335-0.958,0.506c-0.46,0.246-0.918,0.495-1.374,0.747
			c-0.314,0.173-0.627,0.349-0.939,0.525c-0.455,0.258-0.909,0.518-1.36,0.782c-0.307,0.18-0.613,0.361-0.918,0.543
			c-0.45,0.269-0.898,0.541-1.344,0.816c-0.302,0.186-0.604,0.375-0.904,0.565c-0.442,0.279-0.882,0.56-1.32,0.846
			c-0.297,0.193-0.593,0.389-0.888,0.585c-0.437,0.29-0.872,0.583-1.304,0.879c-0.291,0.199-0.579,0.4-0.868,0.602
			c-0.43,0.301-0.858,0.604-1.284,0.911c-0.286,0.206-0.57,0.414-0.854,0.624c-0.421,0.31-0.841,0.622-1.258,0.938
			c-0.281,0.213-0.56,0.428-0.839,0.643c-0.415,0.32-0.828,0.643-1.238,0.969c-0.275,0.219-0.548,0.44-0.821,0.662
			c-0.392,0.318-0.783,0.637-1.17,0.96l-20.646-20.646L400.001,213.159z M202.308,22.897c4.154-3.935,11.226-3.912,15.438,0.051
			l16.729,15.732h-48.829L202.308,22.897z M63.688,68.681c0-5.514,4.486-10,10-10h272.623c5.514,0,10,4.486,10,10v158.11
			L217.746,357.104c-2.026,1.906-4.781,2.955-7.756,2.955h-0.001c-2.962,0-5.699-1.04-7.707-2.929L63.688,226.79V68.681z
			 M43.688,172.661v35.32l-19-17.868L43.688,172.661z M20,213.159l89.013,83.713L20,385.884V213.159z M310.597,340.863
			c-0.221,0.329-0.438,0.662-0.655,0.994c-0.263,0.401-0.526,0.802-0.784,1.207c-0.217,0.341-0.429,0.685-0.643,1.028
			c-0.25,0.402-0.501,0.804-0.746,1.209c-0.213,0.353-0.42,0.709-0.629,1.064c-0.236,0.402-0.474,0.803-0.706,1.207
			c-0.209,0.366-0.414,0.737-0.619,1.106c-0.223,0.399-0.446,0.798-0.664,1.2c-0.204,0.378-0.402,0.759-0.602,1.14
			c-0.211,0.4-0.422,0.799-0.628,1.203c-0.198,0.388-0.389,0.779-0.582,1.169c-0.198,0.4-0.398,0.8-0.592,1.204
			c-0.193,0.402-0.379,0.808-0.567,1.212c-0.184,0.397-0.371,0.792-0.55,1.191c-0.188,0.416-0.368,0.836-0.55,1.255
			c-0.171,0.394-0.345,0.787-0.512,1.183c-0.181,0.43-0.355,0.864-0.531,1.297c-0.158,0.389-0.319,0.777-0.472,1.168
			c-0.175,0.446-0.343,0.896-0.513,1.346c-0.145,0.383-0.293,0.766-0.433,1.151c-0.169,0.461-0.328,0.926-0.491,1.39
			c-0.132,0.378-0.267,0.754-0.396,1.134c-0.162,0.481-0.316,0.966-0.472,1.45c-0.118,0.367-0.24,0.732-0.354,1.101
			c-0.155,0.499-0.3,1.001-0.448,1.502c-0.106,0.36-0.216,0.718-0.318,1.08c-0.146,0.517-0.284,1.038-0.423,1.559
			c-0.093,0.349-0.19,0.695-0.28,1.045c-0.14,0.546-0.271,1.097-0.403,1.647c-0.079,0.327-0.162,0.652-0.237,0.98
			c-0.132,0.573-0.254,1.149-0.377,1.726c-0.066,0.311-0.137,0.62-0.201,0.932c-0.122,0.602-0.235,1.208-0.348,1.813
			c-0.054,0.289-0.113,0.576-0.164,0.865c-0.115,0.645-0.219,1.294-0.323,1.943c-0.041,0.253-0.086,0.503-0.124,0.757
			c-0.105,0.69-0.199,1.383-0.292,2.078c-0.029,0.216-0.063,0.43-0.09,0.647c-0.095,0.75-0.179,1.504-0.259,2.259
			c-0.018,0.162-0.039,0.323-0.055,0.485c-0.085,0.842-0.16,1.688-0.226,2.536c-0.006,0.076-0.014,0.152-0.02,0.229
			c-0.212,2.787-0.322,5.602-0.322,8.442c0,0.042,0.002,0.084,0.002,0.126c0.001,1.303,0.033,2.598,0.08,3.89
			c0.011,0.307,0.021,0.614,0.035,0.921c0.058,1.304,0.136,2.602,0.239,3.893c0.019,0.235,0.043,0.47,0.063,0.705
			c0.103,1.204,0.226,2.403,0.369,3.596c0.024,0.202,0.044,0.404,0.069,0.605c0.16,1.28,0.347,2.552,0.551,3.818
			c0.031,0.156,0.048,0.317,0.074,0.475H30c-4.282,0-7.933-2.71-9.356-6.501L123.589,310.58l64.991,61.121
			c5.732,5.39,13.335,8.358,21.408,8.359c0.001,0,0.001,0,0.001,0c8.087,0,15.708-2.979,21.458-8.386l64.963-61.095l21.083,21.083
			c-0.213,0.256-0.426,0.513-0.637,0.771c-0.239,0.291-0.474,0.586-0.709,0.879c-0.311,0.388-0.622,0.776-0.928,1.168
			c-0.235,0.301-0.466,0.606-0.698,0.91c-0.299,0.392-0.598,0.784-0.893,1.18c-0.23,0.31-0.456,0.624-0.684,0.937
			c-0.287,0.395-0.574,0.79-0.855,1.189c-0.226,0.32-0.448,0.644-0.671,0.967C311.143,340.062,310.867,340.46,310.597,340.863z
			 M402.002,491.995c-42.405,0-78.049-29.482-87.525-69.024c-0.088-0.37-0.177-0.74-0.26-1.11c-0.107-0.476-0.212-0.952-0.312-1.43
			c-0.118-0.566-0.229-1.134-0.335-1.702c-0.092-0.487-0.181-0.976-0.265-1.466c-0.116-0.676-0.226-1.353-0.326-2.032
			c-0.051-0.348-0.099-0.697-0.147-1.047c-0.09-0.663-0.172-1.327-0.247-1.992c-0.031-0.272-0.065-0.543-0.094-0.816
			c-0.094-0.907-0.174-1.817-0.241-2.728c-0.02-0.267-0.034-0.536-0.051-0.804c-0.045-0.701-0.083-1.402-0.111-2.105
			c-0.013-0.306-0.026-0.612-0.035-0.918c-0.027-0.874-0.044-1.75-0.046-2.626c0-0.067-0.002-0.133-0.002-0.2
			c0-49.626,40.374-90,89.999-90c1.081,0,2.176,0.026,3.272,0.066c0.196,0.007,0.392,0.014,0.588,0.022
			c1.097,0.047,2.198,0.11,3.295,0.196c46.294,3.659,82.845,42.498,82.845,89.716C492.002,451.621,451.628,491.995,402.002,491.995z
			"/>
	</g>
</g>
<g>
	<g>
		<path d="M439.749,393.462v-13.968c0-17.92-14.579-32.499-32.499-32.499h-10.496c-17.92,0-32.5,14.579-32.5,32.499v13.968
			c-7.178,2.939-12.252,9.992-12.252,18.216v25.634c0,10.853,8.83,19.683,19.684,19.683h60.633c10.853,0,19.684-8.83,19.684-19.683
			v-25.634C452.002,403.454,446.928,396.401,439.749,393.462z M384.254,379.495c0-6.892,5.608-12.499,12.5-12.499h10.496
			c6.892,0,12.499,5.607,12.499,12.499v12.501h-35.495V379.495z M432.002,436.995h-60v-25h2.252h55.495h2.253V436.995z"/>
	</g>
</g>
<g>
</g>
<g>
</g>
<g>
</g>
<g>
</g>
<g>
</g>
<g>
</g>
<g>
</g>
<g>
</g>
<g>
</g>
<g>
</g>
<g>
</g>
<g>
</g>
<g>
</g>
<g>
</g>
<g>
</g>
</svg>
